<svg xmlns="http://www.w3.org/2000/svg" xmlns:xlink="http://www.w3.org/1999/xlink" width="500" zoomAndPan="magnify" viewBox="0 0 375 374.999991" height="500" preserveAspectRatio="xMidYMid meet" version="1.0"><defs><g/><clipPath id="e2a76bf07b"><path d="M 90 121 L 188 121 L 188 214 L 90 214 Z M 90 121 " clip-rule="nonzero"/></clipPath><clipPath id="e68baac4a5"><path d="M 82.710938 51.074219 L 276.558594 38.628906 L 287.273438 205.535156 L 93.421875 217.980469 Z M 82.710938 51.074219 " clip-rule="nonzero"/></clipPath><clipPath id="c7ec38ea74"><path d="M 276.546875 38.632812 L 82.699219 51.074219 L 93.410156 217.980469 L 287.261719 205.539062 Z M 276.546875 38.632812 " clip-rule="nonzero"/></clipPath><clipPath id="cb54acf8ec"><path d="M 90 59 L 280 59 L 280 198 L 90 198 Z M 90 59 " clip-rule="nonzero"/></clipPath><clipPath id="147734edad"><path d="M 82.710938 51.074219 L 276.558594 38.628906 L 287.273438 205.535156 L 93.421875 217.980469 Z M 82.710938 51.074219 " clip-rule="nonzero"/></clipPath><clipPath id="a6484b08b9"><path d="M 276.546875 38.632812 L 82.699219 51.074219 L 93.410156 217.980469 L 287.261719 205.539062 Z M 276.546875 38.632812 " clip-rule="nonzero"/></clipPath><clipPath id="1d7612a7c6"><path d="M 105 67 L 272 67 L 272 160 L 105 160 Z M 105 67 " clip-rule="nonzero"/></clipPath><clipPath id="e32cbc6e09"><path d="M 82.710938 51.074219 L 276.558594 38.628906 L 287.273438 205.535156 L 93.421875 217.980469 Z M 82.710938 51.074219 " clip-rule="nonzero"/></clipPath><clipPath id="1516f167f6"><path d="M 276.546875 38.632812 L 82.699219 51.074219 L 93.410156 217.980469 L 287.261719 205.539062 Z M 276.546875 38.632812 " clip-rule="nonzero"/></clipPath><clipPath id="0f3a2f7530"><path d="M 223.121094 11.242188 L 256.230469 11.242188 L 256.230469 44.351562 L 223.121094 44.351562 Z M 223.121094 11.242188 " clip-rule="nonzero"/></clipPath><clipPath id="1efee51bbd"><path d="M 239.675781 11.242188 C 230.53125 11.242188 223.121094 18.652344 223.121094 27.796875 C 223.121094 36.9375 230.53125 44.351562 239.675781 44.351562 C 248.816406 44.351562 256.230469 36.9375 256.230469 27.796875 C 256.230469 18.652344 248.816406 11.242188 239.675781 11.242188 " clip-rule="nonzero"/></clipPath><clipPath id="ca4f4d87cf"><path d="M 192 79 L 236 79 L 236 120 L 192 120 Z M 192 79 " clip-rule="nonzero"/></clipPath><clipPath id="d7de9eb845"><path d="M 237.136719 118.152344 L 192.925781 119.949219 L 191.339844 80.984375 L 235.550781 79.183594 Z M 237.136719 118.152344 " clip-rule="nonzero"/></clipPath><clipPath id="fb19fcd3a1"><path d="M 237.136719 118.152344 L 192.925781 119.949219 L 191.339844 80.984375 L 235.550781 79.183594 Z M 237.136719 118.152344 " clip-rule="nonzero"/></clipPath><clipPath id="572a201bb3"><path d="M 102.554688 11.242188 L 135.660156 11.242188 L 135.660156 44.351562 L 102.554688 44.351562 Z M 102.554688 11.242188 " clip-rule="nonzero"/></clipPath><clipPath id="173fad1b1e"><path d="M 119.109375 11.242188 C 109.964844 11.242188 102.554688 18.652344 102.554688 27.796875 C 102.554688 36.9375 109.964844 44.351562 119.109375 44.351562 C 128.25 44.351562 135.660156 36.9375 135.660156 27.796875 C 135.660156 18.652344 128.25 11.242188 119.109375 11.242188 " clip-rule="nonzero"/></clipPath><clipPath id="87d53ffc04"><path d="M 100.851562 13.1875 L 132.351562 13.1875 L 132.351562 46.1875 L 100.851562 46.1875 Z M 100.851562 13.1875 " clip-rule="nonzero"/></clipPath><clipPath id="1ca14c2e6a"><path d="M 221.019531 13.1875 L 252.519531 13.1875 L 252.519531 46.1875 L 221.019531 46.1875 Z M 221.019531 13.1875 " clip-rule="nonzero"/></clipPath></defs><g clip-path="url(#e2a76bf07b)"><g clip-path="url(#e68baac4a5)"><g clip-path="url(#c7ec38ea74)"><path fill="#a8907d" d="M 106.46875 188.304688 C 121.429688 205.078125 134.214844 212.207031 156.175781 213.804688 C 147.449219 209.585938 143.539062 200.433594 142.46875 195.582031 C 145.730469 195.839844 148.992188 196.039062 152.28125 196.253906 C 163.886719 196.925781 175.539062 197.242188 187.203125 197.003906 C 141.859375 192.394531 103.855469 162.46875 90.367188 121.554688 C 89.859375 145.121094 90.40625 170.371094 106.46875 188.304688 " fill-opacity="1" fill-rule="nonzero"/></g></g></g><g clip-path="url(#cb54acf8ec)"><g clip-path="url(#147734edad)"><g clip-path="url(#a6484b08b9)"><path fill="#f0e1ca" d="M 90.367188 121.554688 C 103.855469 162.46875 141.859375 192.394531 187.203125 197.003906 C 195.648438 196.855469 204.0625 196.386719 212.472656 195.570312 C 218.882812 194.921875 226.355469 194.167969 233.8125 192.714844 C 246.015625 190.371094 258.238281 186.179688 265.980469 177.71875 L 266.007812 177.714844 C 266.679688 176.96875 267.324219 176.191406 267.949219 175.390625 C 283.992188 153.996094 279.421875 114.714844 273.953125 90.503906 C 268.816406 67.75 248.53125 59.492188 226.847656 60.765625 C 196.53125 59.8125 90.101562 50.886719 90.703125 99.777344 C 90.773438 105.109375 90.625 110.738281 90.480469 116.507812 C 90.449219 118.183594 90.394531 119.859375 90.367188 121.554688 " fill-opacity="1" fill-rule="nonzero"/></g></g></g><g clip-path="url(#1d7612a7c6)"><g clip-path="url(#e32cbc6e09)"><g clip-path="url(#1516f167f6)"><path fill="#f0e1ca" d="M 268.074219 159.878906 C 273.941406 139.847656 270.535156 113.695312 266.546875 96.101562 C 261.800781 75.042969 243.015625 67.394531 222.945312 68.578125 C 211.132812 68.199219 186.878906 66.523438 162.765625 68.070312 C 139.75 69.546875 116.867188 73.964844 105.070312 85.25 C 118.058594 80.003906 134.71875 77.492188 151.453125 76.417969 C 177.496094 74.746094 203.699219 76.5625 216.441406 76.964844 C 238.113281 75.691406 258.398438 83.941406 263.53125 106.691406 C 266.851562 121.34375 269.796875 141.5 268.074219 159.878906 " fill-opacity="1" fill-rule="nonzero"/></g></g></g><g clip-path="url(#0f3a2f7530)"><g clip-path="url(#1efee51bbd)"><path fill="#2b2722" d="M 223.121094 11.242188 L 256.230469 11.242188 L 256.230469 44.351562 L 223.121094 44.351562 Z M 223.121094 11.242188 " fill-opacity="1" fill-rule="nonzero"/></g></g><g clip-path="url(#ca4f4d87cf)"><g clip-path="url(#d7de9eb845)"><g clip-path="url(#fb19fcd3a1)"><path fill="#2b2722" d="M 197.078125 80.773438 L 229.636719 79.449219 C 229.863281 79.441406 230.089844 79.449219 230.316406 79.46875 C 230.546875 79.488281 230.769531 79.523438 230.992188 79.574219 C 231.214844 79.625 231.433594 79.691406 231.648438 79.769531 C 231.859375 79.847656 232.070312 79.941406 232.269531 80.046875 C 232.472656 80.15625 232.667969 80.273438 232.855469 80.40625 C 233.039062 80.539062 233.21875 80.683594 233.386719 80.839844 C 233.550781 80.996094 233.710938 81.160156 233.855469 81.335938 C 234 81.511719 234.136719 81.699219 234.257812 81.894531 C 234.378906 82.085938 234.488281 82.289062 234.585938 82.496094 C 234.679688 82.703125 234.761719 82.917969 234.832031 83.136719 C 234.898438 83.355469 234.953125 83.582031 234.992188 83.804688 C 235.03125 84.03125 235.054688 84.261719 235.066406 84.488281 C 235.074219 84.71875 235.070312 84.949219 235.046875 85.175781 C 235.027344 85.40625 234.992188 85.632812 234.945312 85.855469 C 234.894531 86.082031 234.828125 86.300781 234.75 86.515625 C 234.671875 86.730469 234.582031 86.941406 234.476562 87.144531 L 219.363281 116.21875 C 219.257812 116.421875 219.140625 116.617188 219.007812 116.804688 C 218.875 116.992188 218.734375 117.171875 218.578125 117.339844 C 218.421875 117.507812 218.257812 117.667969 218.082031 117.8125 C 217.910156 117.960938 217.722656 118.097656 217.53125 118.21875 C 217.339844 118.34375 217.140625 118.453125 216.933594 118.546875 C 216.726562 118.644531 216.511719 118.726562 216.292969 118.796875 C 216.078125 118.863281 215.855469 118.917969 215.628906 118.957031 C 215.40625 118.996094 215.179688 119.019531 214.953125 119.03125 C 214.722656 119.039062 214.496094 119.03125 214.269531 119.011719 C 214.042969 118.992188 213.816406 118.957031 213.59375 118.90625 C 213.371094 118.855469 213.152344 118.789062 212.9375 118.710938 C 212.722656 118.632812 212.515625 118.539062 212.3125 118.429688 C 212.113281 118.324219 211.917969 118.207031 211.730469 118.074219 C 211.542969 117.941406 211.367188 117.796875 211.199219 117.640625 C 211.03125 117.484375 210.875 117.320312 210.726562 117.140625 C 210.582031 116.964844 210.449219 116.78125 210.324219 116.585938 L 193.148438 89.234375 C 192.460938 88.355469 192.101562 87.359375 192.070312 86.242188 C 192.058594 85.898438 192.078125 85.558594 192.128906 85.21875 C 192.179688 84.882812 192.265625 84.550781 192.378906 84.230469 C 192.496094 83.910156 192.640625 83.601562 192.816406 83.308594 C 192.992188 83.015625 193.195312 82.742188 193.425781 82.488281 C 193.652344 82.238281 193.902344 82.007812 194.175781 81.804688 C 194.449219 81.601562 194.738281 81.425781 195.046875 81.28125 C 195.355469 81.132812 195.671875 81.019531 196 80.933594 C 196.332031 80.851562 196.664062 80.800781 197.003906 80.78125 Z M 197.078125 80.773438 " fill-opacity="1" fill-rule="nonzero"/></g></g></g><path stroke-linecap="round" transform="matrix(-0.0170835, -0.750744, 0.749806, -0.0170621, 212.232207, 150.991939)" fill="none" stroke-linejoin="miter" d="M 5.000789 4.998301 L 44.945443 5.00191 " stroke="#2b2722" stroke-width="10" stroke-opacity="1" stroke-miterlimit="4"/><g clip-path="url(#572a201bb3)"><g clip-path="url(#173fad1b1e)"><path fill="#2b2722" d="M 102.554688 11.242188 L 135.660156 11.242188 L 135.660156 44.351562 L 102.554688 44.351562 Z M 102.554688 11.242188 " fill-opacity="1" fill-rule="nonzero"/></g></g><g clip-path="url(#87d53ffc04)"><path fill="#2b2722" d="M 108.4375 22.707031 C 108.4375 19.183594 109.5 15.90625 111.316406 13.179688 C 105.167969 15.796875 100.859375 21.898438 100.859375 29.003906 C 100.859375 38.496094 108.550781 46.191406 118.039062 46.191406 C 124.007812 46.191406 129.261719 43.148438 132.34375 38.53125 C 130.277344 39.410156 128.007812 39.894531 125.621094 39.894531 C 116.132812 39.894531 108.4375 32.199219 108.4375 22.707031 Z M 108.4375 22.707031 " fill-opacity="1" fill-rule="nonzero"/></g><g clip-path="url(#1ca14c2e6a)"><path fill="#2b2722" d="M 228.609375 22.707031 C 228.609375 19.183594 229.667969 15.90625 231.488281 13.179688 C 225.339844 15.796875 221.027344 21.898438 221.027344 29.003906 C 221.027344 38.496094 228.71875 46.191406 238.210938 46.191406 C 244.175781 46.191406 249.433594 43.148438 252.511719 38.53125 C 250.445312 39.410156 248.175781 39.894531 245.789062 39.894531 C 236.300781 39.894531 228.609375 32.199219 228.609375 22.707031 Z M 228.609375 22.707031 " fill-opacity="1" fill-rule="nonzero"/></g><g fill="#2b2722" fill-opacity="1"><g transform="translate(110.355334, 295.188318)"><g><path d="M 45.882812 -51.199219 C 45.882812 -54.796875 43.429688 -56.679688 38.929688 -56.679688 L 8.996094 -56.679688 C 4.5 -56.679688 2.042969 -54.714844 2.042969 -51.199219 C 2.042969 -47.683594 4.5 -45.636719 9.078125 -45.636719 C 11.53125 -45.71875 13.902344 -45.71875 16.195312 -45.71875 C 16.195312 -39.996094 16.277344 -34.1875 16.277344 -28.378906 C 16.277344 -21.183594 16.195312 -14.066406 16.113281 -6.953125 C 16.113281 -2.453125 18.566406 0 23.0625 0 L 24.535156 0 C 29.035156 0 31.488281 -2.453125 31.40625 -6.953125 C 31.40625 -14.148438 31.40625 -21.183594 31.40625 -28.378906 L 31.40625 -45.71875 C 33.859375 -45.71875 36.230469 -45.71875 38.847656 -45.636719 C 43.429688 -45.636719 45.882812 -47.683594 45.882812 -51.199219 Z M 45.882812 -51.199219 "/></g></g></g><g fill="#2b2722" fill-opacity="1"><g transform="translate(158.275205, 295.188318)"><g><path d="M 21.429688 -10.878906 L 21.429688 -22.574219 C 24.863281 -22.492188 28.296875 -22.492188 31.570312 -22.410156 C 36.066406 -22.410156 38.523438 -24.371094 38.523438 -27.972656 C 38.523438 -31.488281 36.066406 -33.449219 31.570312 -33.449219 C 28.296875 -33.371094 24.863281 -33.371094 21.429688 -33.289062 L 21.429688 -45.800781 C 25.925781 -45.71875 30.507812 -45.71875 34.839844 -45.636719 C 39.339844 -45.636719 41.792969 -47.601562 41.792969 -51.199219 C 41.792969 -54.714844 39.339844 -56.679688 34.839844 -56.679688 L 13.085938 -56.679688 C 8.585938 -56.679688 6.132812 -54.226562 6.214844 -49.726562 C 6.214844 -42.613281 6.296875 -35.496094 6.296875 -28.378906 C 6.296875 -21.265625 6.214844 -14.148438 6.214844 -6.953125 C 6.132812 -2.453125 8.585938 0 13.085938 0 L 35.660156 0 C 40.15625 0 42.613281 -1.964844 42.613281 -5.5625 C 42.613281 -9.078125 40.15625 -11.042969 35.660156 -11.042969 C 31.078125 -10.960938 26.253906 -10.960938 21.429688 -10.878906 Z M 21.429688 -10.878906 "/></g></g></g><g fill="#2b2722" fill-opacity="1"><g transform="translate(204.47782, 295.188318)"><g><path d="M 24.78125 0.0820312 C 43.347656 0 51.035156 -9.242188 51.035156 -29.117188 C 51.035156 -49.074219 43.347656 -56.679688 24.78125 -56.679688 L 13.25 -56.679688 C 8.75 -56.679688 6.296875 -54.144531 6.296875 -49.398438 C 6.296875 -24.617188 6.214844 -14.230469 6.132812 -6.789062 C 6.132812 -2.371094 8.585938 0 13.085938 0 Z M 21.511719 -11.285156 C 21.429688 -14.066406 21.429688 -17.09375 21.429688 -20.039062 C 21.429688 -34.023438 21.429688 -39.75 21.511719 -45.390625 L 24.453125 -45.390625 C 33.289062 -45.390625 35.90625 -40.894531 35.90625 -28.378906 C 35.90625 -17.421875 32.960938 -11.285156 24.453125 -11.285156 Z M 21.511719 -11.285156 "/></g></g></g><g fill="#a8907d" fill-opacity="1"><g transform="translate(124.002949, 349.554344)"><g><path d="M 33.578125 -3.359375 C 33.679688 -3.023438 33.734375 -2.679688 33.734375 -2.328125 C 33.734375 -1.609375 33.488281 -1.015625 33 -0.546875 C 32.519531 -0.078125 31.953125 0.15625 31.296875 0.15625 C 30.796875 0.15625 30.335938 0.00390625 29.921875 -0.296875 C 29.503906 -0.597656 29.171875 -1.019531 28.921875 -1.5625 L 25.578125 -9.515625 L 8.859375 -9.515625 L 5.5625 -1.515625 C 5.382812 -0.972656 5.085938 -0.554688 4.671875 -0.265625 C 4.265625 0.015625 3.804688 0.15625 3.296875 0.15625 C 2.535156 0.15625 1.957031 -0.0390625 1.5625 -0.4375 C 1.164062 -0.832031 0.96875 -1.367188 0.96875 -2.046875 C 0.96875 -2.191406 1.003906 -2.484375 1.078125 -2.921875 L 14.875 -36.328125 C 15.125 -36.898438 15.472656 -37.335938 15.921875 -37.640625 C 16.367188 -37.953125 16.882812 -38.070312 17.46875 -38 C 18 -38 18.484375 -37.851562 18.921875 -37.5625 C 19.359375 -37.28125 19.664062 -36.867188 19.84375 -36.328125 Z M 10.921875 -14.4375 L 23.515625 -14.4375 L 17.1875 -29.578125 Z M 10.921875 -14.4375 "/></g></g></g><g fill="#a8907d" fill-opacity="1"><g transform="translate(164.6567, 349.554344)"><g><path d="M 47.578125 -38 C 48.265625 -38 48.894531 -37.75 49.46875 -37.25 C 50.039062 -36.75 50.328125 -36.082031 50.328125 -35.25 C 50.328125 -34.957031 50.273438 -34.648438 50.171875 -34.328125 L 38.984375 -1.625 C 38.835938 -1.113281 38.535156 -0.722656 38.078125 -0.453125 C 37.628906 -0.179688 37.15625 -0.03125 36.65625 0 C 36.144531 0 35.65625 -0.140625 35.1875 -0.421875 C 34.71875 -0.710938 34.378906 -1.128906 34.171875 -1.671875 L 25.734375 -21.40625 L 17.359375 -1.671875 C 17.140625 -1.128906 16.796875 -0.710938 16.328125 -0.421875 C 15.859375 -0.140625 15.351562 0 14.8125 0 C 14.3125 -0.03125 13.84375 -0.191406 13.40625 -0.484375 C 12.976562 -0.773438 12.691406 -1.15625 12.546875 -1.625 L 1.359375 -34.328125 C 1.242188 -34.648438 1.1875 -34.957031 1.1875 -35.25 C 1.1875 -36.039062 1.484375 -36.695312 2.078125 -37.21875 C 2.671875 -37.738281 3.3125 -38 4 -38 C 4.570312 -38 5.09375 -37.847656 5.5625 -37.546875 C 6.03125 -37.242188 6.335938 -36.835938 6.484375 -36.328125 L 15.625 -9.25 L 23.46875 -28.484375 C 23.675781 -28.992188 23.992188 -29.390625 24.421875 -29.671875 C 24.859375 -29.960938 25.347656 -30.109375 25.890625 -30.109375 C 26.429688 -30.109375 26.914062 -29.960938 27.34375 -29.671875 C 27.78125 -29.390625 28.109375 -28.992188 28.328125 -28.484375 L 35.953125 -9.25 L 45.03125 -36.328125 C 45.175781 -36.867188 45.484375 -37.28125 45.953125 -37.5625 C 46.421875 -37.851562 46.960938 -38 47.578125 -38 Z M 47.578125 -38 "/></g></g></g><g fill="#a8907d" fill-opacity="1"><g transform="translate(222.122756, 349.554344)"><g><path d="M 9.78125 -32.875 L 9.78125 -21.671875 L 23.078125 -21.671875 C 23.835938 -21.671875 24.460938 -21.4375 24.953125 -20.96875 C 25.441406 -20.507812 25.6875 -19.898438 25.6875 -19.140625 C 25.6875 -18.492188 25.441406 -17.9375 24.953125 -17.46875 C 24.460938 -17 23.835938 -16.765625 23.078125 -16.765625 L 9.78125 -16.765625 L 9.78125 -2.59375 C 9.78125 -1.875 9.519531 -1.257812 9 -0.75 C 8.476562 -0.25 7.859375 0 7.140625 0 C 6.378906 0 5.742188 -0.25 5.234375 -0.75 C 4.734375 -1.257812 4.484375 -1.875 4.484375 -2.59375 L 4.484375 -35.25 C 4.484375 -35.96875 4.734375 -36.578125 5.234375 -37.078125 C 5.742188 -37.585938 6.359375 -37.84375 7.078125 -37.84375 L 25.515625 -37.84375 C 26.273438 -37.84375 26.894531 -37.609375 27.375 -37.140625 C 27.863281 -36.671875 28.109375 -36.054688 28.109375 -35.296875 C 28.109375 -34.648438 27.851562 -34.082031 27.34375 -33.59375 C 26.84375 -33.113281 26.234375 -32.875 25.515625 -32.875 Z M 9.78125 -32.875 "/></g></g></g></svg>