<svg xmlns="http://www.w3.org/2000/svg" xmlns:xlink="http://www.w3.org/1999/xlink" width="500" zoomAndPan="magnify" viewBox="0 0 375 374.999991" height="500" preserveAspectRatio="xMidYMid meet" version="1.0"><defs><g/><clipPath id="4fda499c22"><path d="M 90 121 L 188 121 L 188 214 L 90 214 Z M 90 121 " clip-rule="nonzero"/></clipPath><clipPath id="ebd0a8ebe1"><path d="M 82.707031 51.074219 L 276.546875 38.632812 L 287.25 205.332031 L 93.410156 217.773438 Z M 82.707031 51.074219 " clip-rule="nonzero"/></clipPath><clipPath id="8443065286"><path d="M 276.546875 38.632812 L 82.707031 51.074219 L 93.410156 217.773438 L 287.25 205.332031 Z M 276.546875 38.632812 " clip-rule="nonzero"/></clipPath><clipPath id="4332391b32"><path d="M 90 59 L 280 59 L 280 197 L 90 197 Z M 90 59 " clip-rule="nonzero"/></clipPath><clipPath id="680a064e83"><path d="M 82.707031 51.074219 L 276.546875 38.632812 L 287.25 205.332031 L 93.410156 217.773438 Z M 82.707031 51.074219 " clip-rule="nonzero"/></clipPath><clipPath id="d387a08136"><path d="M 276.546875 38.632812 L 82.707031 51.074219 L 93.410156 217.773438 L 287.25 205.332031 Z M 276.546875 38.632812 " clip-rule="nonzero"/></clipPath><clipPath id="d0cb45e900"><path d="M 105 67 L 272 67 L 272 160 L 105 160 Z M 105 67 " clip-rule="nonzero"/></clipPath><clipPath id="ae6e6352fb"><path d="M 82.707031 51.074219 L 276.546875 38.632812 L 287.25 205.332031 L 93.410156 217.773438 Z M 82.707031 51.074219 " clip-rule="nonzero"/></clipPath><clipPath id="291758da65"><path d="M 276.546875 38.632812 L 82.707031 51.074219 L 93.410156 217.773438 L 287.25 205.332031 Z M 276.546875 38.632812 " clip-rule="nonzero"/></clipPath><clipPath id="e3d202153a"><path d="M 223.121094 11.242188 L 256.230469 11.242188 L 256.230469 44.351562 L 223.121094 44.351562 Z M 223.121094 11.242188 " clip-rule="nonzero"/></clipPath><clipPath id="aedf843d37"><path d="M 239.675781 11.242188 C 230.53125 11.242188 223.121094 18.652344 223.121094 27.796875 C 223.121094 36.9375 230.53125 44.351562 239.675781 44.351562 C 248.816406 44.351562 256.230469 36.9375 256.230469 27.796875 C 256.230469 18.652344 248.816406 11.242188 239.675781 11.242188 " clip-rule="nonzero"/></clipPath><clipPath id="83bf214de7"><path d="M 191 79 L 236 79 L 236 120 L 191 120 Z M 191 79 " clip-rule="nonzero"/></clipPath><clipPath id="3b94dcc6f8"><path d="M 237.128906 118.144531 L 192.492188 119.960938 L 190.914062 81.144531 L 235.550781 79.328125 Z M 237.128906 118.144531 " clip-rule="nonzero"/></clipPath><clipPath id="9118992001"><path d="M 237.128906 118.144531 L 192.492188 119.960938 L 190.914062 81.144531 L 235.550781 79.328125 Z M 237.128906 118.144531 " clip-rule="nonzero"/></clipPath><clipPath id="460b290a42"><path d="M 102.554688 11.242188 L 135.660156 11.242188 L 135.660156 44.351562 L 102.554688 44.351562 Z M 102.554688 11.242188 " clip-rule="nonzero"/></clipPath><clipPath id="1d68d19cc1"><path d="M 119.109375 11.242188 C 109.964844 11.242188 102.554688 18.652344 102.554688 27.796875 C 102.554688 36.9375 109.964844 44.351562 119.109375 44.351562 C 128.25 44.351562 135.660156 36.9375 135.660156 27.796875 C 135.660156 18.652344 128.25 11.242188 119.109375 11.242188 " clip-rule="nonzero"/></clipPath><clipPath id="e8fd41dd2d"><path d="M 100.851562 13.1875 L 131.929688 13.1875 L 131.929688 46.207031 L 100.851562 46.207031 Z M 100.851562 13.1875 " clip-rule="nonzero"/></clipPath><clipPath id="df6ac8faa8"><path d="M 221.019531 13.1875 L 252.097656 13.1875 L 252.097656 46.207031 L 221.019531 46.207031 Z M 221.019531 13.1875 " clip-rule="nonzero"/></clipPath></defs><g clip-path="url(#4fda499c22)"><g clip-path="url(#ebd0a8ebe1)"><g clip-path="url(#8443065286)"><path fill="#aeb5d1" d="M 106.46875 188.132812 C 121.425781 204.882812 134.210938 212.003906 156.167969 213.601562 C 147.445312 209.386719 143.535156 200.242188 142.464844 195.398438 C 145.726562 195.65625 148.988281 195.855469 152.277344 196.070312 C 163.882812 196.738281 175.53125 197.054688 187.195312 196.816406 C 141.855469 192.214844 103.859375 162.332031 90.371094 121.464844 C 89.863281 145.003906 90.40625 170.222656 106.46875 188.132812 " fill-opacity="1" fill-rule="nonzero"/></g></g></g><g clip-path="url(#4332391b32)"><g clip-path="url(#680a064e83)"><g clip-path="url(#d387a08136)"><path fill="#ffffff" d="M 90.371094 121.464844 C 103.859375 162.332031 141.855469 192.214844 187.195312 196.816406 C 195.640625 196.667969 204.058594 196.199219 212.464844 195.378906 C 218.875 194.734375 226.347656 193.980469 233.800781 192.527344 C 246.007812 190.1875 258.226562 186 265.96875 177.546875 L 266 177.546875 C 266.667969 176.800781 267.316406 176.023438 267.941406 175.222656 C 283.984375 153.851562 279.417969 114.621094 273.949219 90.441406 C 268.816406 67.714844 248.53125 59.472656 226.847656 60.746094 C 196.535156 59.796875 90.113281 50.886719 90.710938 99.71875 C 90.78125 105.042969 90.632812 110.664062 90.488281 116.425781 C 90.453125 118.097656 90.402344 119.773438 90.371094 121.464844 " fill-opacity="1" fill-rule="nonzero"/></g></g></g><g clip-path="url(#d0cb45e900)"><g clip-path="url(#ae6e6352fb)"><g clip-path="url(#291758da65)"><path fill="#ffffff" d="M 268.066406 159.730469 C 273.933594 139.726562 270.527344 113.605469 266.542969 96.03125 C 261.800781 75 243.015625 67.363281 222.945312 68.546875 C 211.136719 68.167969 186.882812 66.496094 162.769531 68.042969 C 139.757812 69.523438 116.875 73.933594 105.074219 85.207031 C 118.0625 79.96875 134.726562 77.457031 151.460938 76.382812 C 177.5 74.710938 203.699219 76.523438 216.445312 76.921875 C 238.113281 75.652344 258.398438 83.890625 263.527344 106.609375 C 266.84375 121.246094 269.789062 141.375 268.066406 159.730469 " fill-opacity="1" fill-rule="nonzero"/></g></g></g><g clip-path="url(#e3d202153a)"><g clip-path="url(#aedf843d37)"><path fill="#ffffff" d="M 223.121094 11.242188 L 256.230469 11.242188 L 256.230469 44.351562 L 223.121094 44.351562 Z M 223.121094 11.242188 " fill-opacity="1" fill-rule="nonzero"/></g></g><g clip-path="url(#83bf214de7)"><g clip-path="url(#3b94dcc6f8)"><g clip-path="url(#9118992001)"><path fill="#393657" d="M 196.707031 80.933594 L 229.578125 79.597656 C 229.808594 79.589844 230.039062 79.59375 230.265625 79.617188 C 230.496094 79.636719 230.722656 79.671875 230.945312 79.722656 C 231.171875 79.773438 231.390625 79.835938 231.609375 79.914062 C 231.824219 79.992188 232.035156 80.085938 232.238281 80.191406 C 232.441406 80.296875 232.636719 80.417969 232.824219 80.550781 C 233.015625 80.679688 233.191406 80.824219 233.363281 80.980469 C 233.53125 81.132812 233.6875 81.300781 233.835938 81.476562 C 233.984375 81.652344 234.121094 81.835938 234.242188 82.027344 C 234.367188 82.222656 234.476562 82.421875 234.574219 82.628906 C 234.667969 82.835938 234.75 83.050781 234.820312 83.269531 C 234.890625 83.488281 234.941406 83.707031 234.984375 83.933594 C 235.023438 84.160156 235.046875 84.386719 235.054688 84.613281 C 235.066406 84.84375 235.058594 85.070312 235.039062 85.300781 C 235.019531 85.527344 234.984375 85.753906 234.933594 85.976562 C 234.882812 86.199219 234.816406 86.417969 234.738281 86.632812 C 234.660156 86.847656 234.566406 87.058594 234.460938 87.261719 L 219.1875 116.230469 C 219.078125 116.429688 218.960938 116.625 218.828125 116.8125 C 218.695312 117 218.550781 117.179688 218.394531 117.347656 C 218.238281 117.515625 218.070312 117.671875 217.894531 117.820312 C 217.714844 117.964844 217.53125 118.101562 217.335938 118.222656 C 217.140625 118.34375 216.941406 118.453125 216.730469 118.550781 C 216.519531 118.648438 216.308594 118.730469 216.085938 118.796875 C 215.867188 118.867188 215.644531 118.917969 215.417969 118.957031 C 215.191406 118.996094 214.960938 119.023438 214.730469 119.03125 C 214.5 119.039062 214.269531 119.035156 214.042969 119.015625 C 213.8125 118.992188 213.585938 118.957031 213.359375 118.910156 C 213.136719 118.859375 212.914062 118.792969 212.699219 118.714844 C 212.484375 118.636719 212.273438 118.542969 212.070312 118.4375 C 211.863281 118.332031 211.667969 118.210938 211.480469 118.082031 C 211.292969 117.949219 211.113281 117.804688 210.945312 117.648438 C 210.773438 117.496094 210.617188 117.328125 210.46875 117.152344 C 210.320312 116.976562 210.183594 116.792969 210.0625 116.601562 L 192.734375 89.363281 C 192.042969 88.488281 191.679688 87.496094 191.648438 86.382812 C 191.636719 86.042969 191.65625 85.703125 191.707031 85.367188 C 191.761719 85.027344 191.847656 84.699219 191.964844 84.378906 C 192.082031 84.058594 192.226562 83.753906 192.40625 83.460938 C 192.582031 83.167969 192.789062 82.898438 193.019531 82.644531 C 193.25 82.394531 193.503906 82.164062 193.777344 81.964844 C 194.054688 81.761719 194.347656 81.585938 194.65625 81.4375 C 194.96875 81.292969 195.289062 81.179688 195.621094 81.09375 C 195.953125 81.011719 196.289062 80.960938 196.632812 80.941406 Z M 196.707031 80.933594 " fill-opacity="1" fill-rule="nonzero"/></g></g></g><path stroke-linecap="round" transform="matrix(-0.0223448, -0.981957, 0.970942, -0.0220941, 212.09646, 150.994092)" fill="none" stroke-linejoin="miter" d="M 4.001352 3.999802 L 34.568506 3.999208 " stroke="#393657" stroke-width="8" stroke-opacity="1" stroke-miterlimit="4"/><g clip-path="url(#460b290a42)"><g clip-path="url(#1d68d19cc1)"><path fill="#ffffff" d="M 102.554688 11.242188 L 135.660156 11.242188 L 135.660156 44.351562 L 102.554688 44.351562 Z M 102.554688 11.242188 " fill-opacity="1" fill-rule="nonzero"/></g></g><g clip-path="url(#e8fd41dd2d)"><path fill="#aeb5d1" d="M 108.339844 22.714844 C 108.339844 19.1875 109.382812 15.910156 111.179688 13.179688 C 105.113281 15.800781 100.859375 21.902344 100.859375 29.011719 C 100.859375 38.511719 108.449219 46.210938 117.808594 46.210938 C 123.695312 46.210938 128.878906 43.167969 131.917969 38.546875 C 129.882812 39.425781 127.640625 39.914062 125.289062 39.914062 C 115.925781 39.914062 108.339844 32.210938 108.339844 22.714844 Z M 108.339844 22.714844 " fill-opacity="1" fill-rule="nonzero"/></g><g clip-path="url(#df6ac8faa8)"><path fill="#aeb5d1" d="M 228.507812 22.714844 C 228.507812 19.1875 229.554688 15.910156 231.347656 13.179688 C 225.28125 15.800781 221.03125 21.902344 221.03125 29.011719 C 221.03125 38.511719 228.617188 46.210938 237.980469 46.210938 C 243.863281 46.210938 249.050781 43.167969 252.089844 38.546875 C 250.050781 39.425781 247.808594 39.914062 245.457031 39.914062 C 236.097656 39.914062 228.507812 32.210938 228.507812 22.714844 Z M 228.507812 22.714844 " fill-opacity="1" fill-rule="nonzero"/></g><g fill="#ffffff" fill-opacity="1"><g transform="translate(110.355209, 295.188069)"><g><path d="M 45.882812 -51.199219 C 45.882812 -54.796875 43.429688 -56.679688 38.929688 -56.679688 L 8.996094 -56.679688 C 4.5 -56.679688 2.042969 -54.714844 2.042969 -51.199219 C 2.042969 -47.683594 4.5 -45.636719 9.078125 -45.636719 C 11.53125 -45.71875 13.902344 -45.71875 16.195312 -45.71875 C 16.195312 -39.996094 16.277344 -34.1875 16.277344 -28.378906 C 16.277344 -21.183594 16.195312 -14.066406 16.113281 -6.953125 C 16.113281 -2.453125 18.566406 0 23.0625 0 L 24.535156 0 C 29.035156 0 31.488281 -2.453125 31.40625 -6.953125 C 31.40625 -14.148438 31.40625 -21.183594 31.40625 -28.378906 L 31.40625 -45.71875 C 33.859375 -45.71875 36.230469 -45.71875 38.847656 -45.636719 C 43.429688 -45.636719 45.882812 -47.683594 45.882812 -51.199219 Z M 45.882812 -51.199219 "/></g></g></g><g fill="#ffffff" fill-opacity="1"><g transform="translate(158.27508, 295.188069)"><g><path d="M 21.429688 -10.878906 L 21.429688 -22.574219 C 24.863281 -22.492188 28.296875 -22.492188 31.570312 -22.410156 C 36.066406 -22.410156 38.523438 -24.371094 38.523438 -27.972656 C 38.523438 -31.488281 36.066406 -33.449219 31.570312 -33.449219 C 28.296875 -33.371094 24.863281 -33.371094 21.429688 -33.289062 L 21.429688 -45.800781 C 25.925781 -45.71875 30.507812 -45.71875 34.839844 -45.636719 C 39.339844 -45.636719 41.792969 -47.601562 41.792969 -51.199219 C 41.792969 -54.714844 39.339844 -56.679688 34.839844 -56.679688 L 13.085938 -56.679688 C 8.585938 -56.679688 6.132812 -54.226562 6.214844 -49.726562 C 6.214844 -42.613281 6.296875 -35.496094 6.296875 -28.378906 C 6.296875 -21.265625 6.214844 -14.148438 6.214844 -6.953125 C 6.132812 -2.453125 8.585938 0 13.085938 0 L 35.660156 0 C 40.15625 0 42.613281 -1.964844 42.613281 -5.5625 C 42.613281 -9.078125 40.15625 -11.042969 35.660156 -11.042969 C 31.078125 -10.960938 26.253906 -10.960938 21.429688 -10.878906 Z M 21.429688 -10.878906 "/></g></g></g><g fill="#ffffff" fill-opacity="1"><g transform="translate(204.477695, 295.188069)"><g><path d="M 24.78125 0.0820312 C 43.347656 0 51.035156 -9.242188 51.035156 -29.117188 C 51.035156 -49.074219 43.347656 -56.679688 24.78125 -56.679688 L 13.25 -56.679688 C 8.75 -56.679688 6.296875 -54.144531 6.296875 -49.398438 C 6.296875 -24.617188 6.214844 -14.230469 6.132812 -6.789062 C 6.132812 -2.371094 8.585938 0 13.085938 0 Z M 21.511719 -11.285156 C 21.429688 -14.066406 21.429688 -17.09375 21.429688 -20.039062 C 21.429688 -34.023438 21.429688 -39.75 21.511719 -45.390625 L 24.453125 -45.390625 C 33.289062 -45.390625 35.90625 -40.894531 35.90625 -28.378906 C 35.90625 -17.421875 32.960938 -11.285156 24.453125 -11.285156 Z M 21.511719 -11.285156 "/></g></g></g><g fill="#aeb5d1" fill-opacity="1"><g transform="translate(124.003006, 349.554344)"><g><path d="M 33.578125 -3.359375 C 33.679688 -3.023438 33.734375 -2.679688 33.734375 -2.328125 C 33.734375 -1.609375 33.488281 -1.015625 33 -0.546875 C 32.519531 -0.078125 31.953125 0.15625 31.296875 0.15625 C 30.796875 0.15625 30.335938 0.00390625 29.921875 -0.296875 C 29.503906 -0.597656 29.171875 -1.019531 28.921875 -1.5625 L 25.578125 -9.515625 L 8.859375 -9.515625 L 5.5625 -1.515625 C 5.382812 -0.972656 5.085938 -0.554688 4.671875 -0.265625 C 4.265625 0.015625 3.804688 0.15625 3.296875 0.15625 C 2.535156 0.15625 1.957031 -0.0390625 1.5625 -0.4375 C 1.164062 -0.832031 0.96875 -1.367188 0.96875 -2.046875 C 0.96875 -2.191406 1.003906 -2.484375 1.078125 -2.921875 L 14.875 -36.328125 C 15.125 -36.898438 15.472656 -37.335938 15.921875 -37.640625 C 16.367188 -37.953125 16.882812 -38.070312 17.46875 -38 C 18 -38 18.484375 -37.851562 18.921875 -37.5625 C 19.359375 -37.28125 19.664062 -36.867188 19.84375 -36.328125 Z M 10.921875 -14.4375 L 23.515625 -14.4375 L 17.1875 -29.578125 Z M 10.921875 -14.4375 "/></g></g></g><g fill="#aeb5d1" fill-opacity="1"><g transform="translate(164.656758, 349.554344)"><g><path d="M 47.578125 -38 C 48.265625 -38 48.894531 -37.75 49.46875 -37.25 C 50.039062 -36.75 50.328125 -36.082031 50.328125 -35.25 C 50.328125 -34.957031 50.273438 -34.648438 50.171875 -34.328125 L 38.984375 -1.625 C 38.835938 -1.113281 38.535156 -0.722656 38.078125 -0.453125 C 37.628906 -0.179688 37.15625 -0.03125 36.65625 0 C 36.144531 0 35.65625 -0.140625 35.1875 -0.421875 C 34.71875 -0.710938 34.378906 -1.128906 34.171875 -1.671875 L 25.734375 -21.40625 L 17.359375 -1.671875 C 17.140625 -1.128906 16.796875 -0.710938 16.328125 -0.421875 C 15.859375 -0.140625 15.351562 0 14.8125 0 C 14.3125 -0.03125 13.84375 -0.191406 13.40625 -0.484375 C 12.976562 -0.773438 12.691406 -1.15625 12.546875 -1.625 L 1.359375 -34.328125 C 1.242188 -34.648438 1.1875 -34.957031 1.1875 -35.25 C 1.1875 -36.039062 1.484375 -36.695312 2.078125 -37.21875 C 2.671875 -37.738281 3.3125 -38 4 -38 C 4.570312 -38 5.09375 -37.847656 5.5625 -37.546875 C 6.03125 -37.242188 6.335938 -36.835938 6.484375 -36.328125 L 15.625 -9.25 L 23.46875 -28.484375 C 23.675781 -28.992188 23.992188 -29.390625 24.421875 -29.671875 C 24.859375 -29.960938 25.347656 -30.109375 25.890625 -30.109375 C 26.429688 -30.109375 26.914062 -29.960938 27.34375 -29.671875 C 27.78125 -29.390625 28.109375 -28.992188 28.328125 -28.484375 L 35.953125 -9.25 L 45.03125 -36.328125 C 45.175781 -36.867188 45.484375 -37.28125 45.953125 -37.5625 C 46.421875 -37.851562 46.960938 -38 47.578125 -38 Z M 47.578125 -38 "/></g></g></g><g fill="#aeb5d1" fill-opacity="1"><g transform="translate(222.122813, 349.554344)"><g><path d="M 9.78125 -32.875 L 9.78125 -21.671875 L 23.078125 -21.671875 C 23.835938 -21.671875 24.460938 -21.4375 24.953125 -20.96875 C 25.441406 -20.507812 25.6875 -19.898438 25.6875 -19.140625 C 25.6875 -18.492188 25.441406 -17.9375 24.953125 -17.46875 C 24.460938 -17 23.835938 -16.765625 23.078125 -16.765625 L 9.78125 -16.765625 L 9.78125 -2.59375 C 9.78125 -1.875 9.519531 -1.257812 9 -0.75 C 8.476562 -0.25 7.859375 0 7.140625 0 C 6.378906 0 5.742188 -0.25 5.234375 -0.75 C 4.734375 -1.257812 4.484375 -1.875 4.484375 -2.59375 L 4.484375 -35.25 C 4.484375 -35.96875 4.734375 -36.578125 5.234375 -37.078125 C 5.742188 -37.585938 6.359375 -37.84375 7.078125 -37.84375 L 25.515625 -37.84375 C 26.273438 -37.84375 26.894531 -37.609375 27.375 -37.140625 C 27.863281 -36.671875 28.109375 -36.054688 28.109375 -35.296875 C 28.109375 -34.648438 27.851562 -34.082031 27.34375 -33.59375 C 26.84375 -33.113281 26.234375 -32.875 25.515625 -32.875 Z M 9.78125 -32.875 "/></g></g></g></svg>