<svg xmlns="http://www.w3.org/2000/svg" xmlns:xlink="http://www.w3.org/1999/xlink" width="500" zoomAndPan="magnify" viewBox="0 0 375 374.999991" height="500" preserveAspectRatio="xMidYMid meet" version="1.0"><defs><g/><clipPath id="705a79af3f"><path d="M 0 167.34375 L 375 167.34375 L 375 207.65625 L 0 207.65625 Z M 0 167.34375 " clip-rule="nonzero"/></clipPath></defs><rect x="-37.5" width="450" fill="#ffffff" y="-37.499999" height="449.999989" fill-opacity="1"/><rect x="-37.5" width="450" fill="#ffffff" y="-37.499999" height="449.999989" fill-opacity="1"/><rect x="-37.5" width="450" fill="#ffffff" y="-37.499999" height="449.999989" fill-opacity="1"/><g fill="#000000" fill-opacity="1"><g transform="translate(40.608987, 265.603124)"><g><path d="M 77.519531 -132.609375 C 79.496094 -132.609375 80.890625 -134.003906 80.890625 -136.792969 L 80.890625 -156.667969 C 80.890625 -159.457031 79.496094 -160.851562 77.519531 -160.851562 L 3.253906 -160.851562 C 1.277344 -160.851562 -0.117188 -159.339844 -0.117188 -156.550781 L -0.117188 -136.792969 C -0.117188 -134.003906 1.277344 -132.609375 3.253906 -132.609375 L 24.871094 -132.609375 L 24.871094 -4.066406 C 24.871094 -1.394531 26.265625 0 28.242188 0 L 52.53125 0 C 54.390625 0 55.902344 -1.394531 55.902344 -4.066406 L 55.902344 -132.609375 Z M 77.519531 -132.609375 "/></g></g></g><g fill="#000000" fill-opacity="1"><g transform="translate(133.168482, 265.603124)"><g><path d="M 39.28125 -28.007812 L 39.28125 -67.410156 L 73.21875 -67.410156 C 75.429688 -67.410156 76.9375 -68.570312 76.9375 -71.359375 L 76.9375 -91.234375 C 76.9375 -94.140625 75.195312 -95.300781 73.21875 -95.300781 L 39.28125 -95.300781 L 39.28125 -132.609375 L 81.820312 -132.609375 C 83.914062 -132.609375 85.074219 -134.003906 85.074219 -136.792969 L 85.074219 -156.550781 C 85.074219 -159.457031 83.914062 -160.851562 81.820312 -160.851562 L 12.320312 -160.851562 C 9.878906 -160.851562 8.367188 -159.109375 8.367188 -156.320312 L 8.367188 -4.417969 C 8.367188 -1.628906 9.644531 0 12.320312 0 L 82.402344 0 C 84.261719 0 85.773438 -1.277344 85.773438 -4.066406 L 85.773438 -24.058594 C 85.773438 -26.730469 84.261719 -28.007812 82.402344 -28.007812 Z M 39.28125 -28.007812 "/></g></g></g><g fill="#000000" fill-opacity="1"><g transform="translate(233.514849, 265.603124)"><g><path d="M 39.28125 -132.609375 L 50.789062 -132.609375 C 58.691406 -132.609375 64.15625 -128.078125 64.15625 -118.3125 L 64.15625 -42.1875 C 64.15625 -34.285156 59.15625 -28.242188 51.371094 -28.007812 L 39.28125 -28.007812 Z M 8.367188 -4.417969 C 8.367188 -1.628906 9.644531 0 12.320312 0 L 52.882812 0 C 76.589844 -0.234375 95.070312 -14.527344 95.070312 -41.257812 L 95.070312 -119.59375 C 95.070312 -146.207031 76.707031 -160.617188 52.648438 -160.851562 L 12.320312 -160.851562 C 9.878906 -160.851562 8.367188 -159.109375 8.367188 -156.320312 Z M 8.367188 -4.417969 "/></g></g></g><g clip-path="url(#705a79af3f)"><path fill="#000000" d="M 0 167.34375 L 374.378906 167.34375 L 374.378906 207.953125 L 0 207.953125 Z M 0 167.34375 " fill-opacity="1" fill-rule="nonzero"/></g><g fill="#000000" fill-opacity="1"><g transform="translate(121.213324, 199.178355)"><g><path d="M 5.40625 -17.101562 C 5.40625 -18.132812 6.042969 -19.066406 7.15625 -19.066406 C 8.253906 -19.066406 8.894531 -18.132812 8.894531 -17.101562 L 8.894531 -9.222656 L 5.40625 -9.222656 Z M 13.265625 -17.347656 C 13.265625 -20.492188 10.417969 -23.03125 7.140625 -23.03125 C 3.867188 -23.03125 1.03125 -20.492188 1.03125 -17.347656 L 1.03125 -0.640625 C 1.03125 -0.292969 1.210938 0 1.457031 0 L 4.914062 0 C 5.308594 0 5.40625 -0.277344 5.40625 -0.640625 L 5.40625 -5.40625 L 8.894531 -5.40625 L 8.894531 -0.65625 C 8.894531 -0.3125 9.089844 0 9.417969 0 L 12.742188 0 C 13.121094 0 13.265625 -0.328125 13.265625 -0.65625 Z M 13.265625 -17.347656 "/></g></g></g><g fill="#000000" fill-opacity="1"><g transform="translate(152.792441, 199.178355)"><g/></g></g><g fill="#000000" fill-opacity="1"><g transform="translate(177.673852, 199.178355)"><g><path d="M 21.128906 -22.015625 C 21.128906 -22.34375 20.964844 -22.667969 20.605469 -22.667969 L 17.28125 -22.667969 C 16.953125 -22.667969 16.773438 -22.359375 16.773438 -22.015625 L 16.773438 -5.570312 C 16.773438 -4.539062 16.167969 -3.585938 15.019531 -3.585938 C 13.875 -3.585938 13.265625 -4.539062 13.265625 -5.570312 L 13.265625 -22.03125 C 13.265625 -22.375 13.167969 -22.667969 12.777344 -22.667969 L 9.335938 -22.667969 C 9.089844 -22.667969 8.894531 -22.375 8.894531 -22.03125 L 8.894531 -5.570312 C 8.894531 -4.539062 8.273438 -3.585938 7.125 -3.585938 C 6.042969 -3.585938 5.40625 -4.539062 5.40625 -5.570312 L 5.40625 -22.03125 C 5.40625 -22.375 5.289062 -22.667969 4.914062 -22.667969 L 1.457031 -22.667969 C 1.210938 -22.667969 1.03125 -22.375 1.03125 -22.03125 L 1.03125 -5.324219 C 1.03125 -2.179688 3.226562 0.359375 7.140625 0.359375 C 9.007812 0.359375 10.382812 -0.476562 11.21875 -1.785156 C 12.007812 -0.476562 13.347656 0.359375 15.234375 0.359375 C 18.96875 0.359375 21.128906 -2.179688 21.128906 -5.324219 Z M 21.128906 -22.015625 "/></g></g></g><g fill="#000000" fill-opacity="1"><g transform="translate(217.113348, 199.178355)"><g/></g></g><g fill="#000000" fill-opacity="1"><g transform="translate(241.994756, 199.178355)"><g><path d="M 11.5625 -22.078125 C 11.5625 -22.472656 11.382812 -22.667969 11.121094 -22.667969 L 1.734375 -22.667969 C 1.390625 -22.667969 1.179688 -22.421875 1.179688 -22.03125 L 1.179688 -0.621094 C 1.179688 -0.230469 1.359375 0 1.734375 0 L 5.011719 0 C 5.390625 0 5.535156 -0.230469 5.535156 -0.621094 L 5.535156 -9.171875 L 9.84375 -9.171875 C 10.140625 -9.171875 10.335938 -9.371094 10.335938 -9.746094 L 10.335938 -12.53125 C 10.335938 -12.957031 10.105469 -13.105469 9.84375 -13.105469 L 5.535156 -13.105469 L 5.535156 -18.6875 L 11.121094 -18.6875 C 11.382812 -18.6875 11.5625 -18.886719 11.5625 -19.296875 Z M 11.5625 -22.078125 "/></g></g></g><path stroke-linecap="butt" transform="matrix(0.75, -0.000000000000000053, 0.000000000000000053, 0.75, 37.500002, 166.592773)" fill="none" stroke-linejoin="miter" d="M -0.00000271667 1.001303 L 400.000024 1.001303 " stroke="#000000" stroke-width="2" stroke-opacity="1" stroke-miterlimit="4"/><path stroke-linecap="butt" transform="matrix(0.75, 0, 0, 0.75, 37.500002, 206.907217)" fill="none" stroke-linejoin="miter" d="M -0.00000271667 0.998711 L 400.000024 0.998711 " stroke="#000000" stroke-width="2" stroke-opacity="1" stroke-miterlimit="4"/></svg>