<svg xmlns="http://www.w3.org/2000/svg" xmlns:xlink="http://www.w3.org/1999/xlink" width="500" zoomAndPan="magnify" viewBox="0 0 375 374.999991" height="500" preserveAspectRatio="xMidYMid meet" version="1.0"><defs><g/><clipPath id="d58a88fd32"><path d="M 0 167.34375 L 375 167.34375 L 375 207.65625 L 0 207.65625 Z M 0 167.34375 " clip-rule="nonzero"/></clipPath></defs><rect x="-37.5" width="450" fill="#ffffff" y="-37.499999" height="449.999989" fill-opacity="1"/><rect x="-37.5" width="450" fill="#000000" y="-37.499999" height="449.999989" fill-opacity="1"/><g fill="#ffffff" fill-opacity="1"><g transform="translate(40.608987, 265.60315)"><g><path d="M 77.519531 -132.609375 C 79.496094 -132.609375 80.890625 -134.003906 80.890625 -136.792969 L 80.890625 -156.667969 C 80.890625 -159.457031 79.496094 -160.851562 77.519531 -160.851562 L 3.253906 -160.851562 C 1.277344 -160.851562 -0.117188 -159.339844 -0.117188 -156.550781 L -0.117188 -136.792969 C -0.117188 -134.003906 1.277344 -132.609375 3.253906 -132.609375 L 24.871094 -132.609375 L 24.871094 -4.066406 C 24.871094 -1.394531 26.265625 0 28.242188 0 L 52.53125 0 C 54.390625 0 55.902344 -1.394531 55.902344 -4.066406 L 55.902344 -132.609375 Z M 77.519531 -132.609375 "/></g></g></g><g fill="#ffffff" fill-opacity="1"><g transform="translate(133.168482, 265.60315)"><g><path d="M 39.28125 -28.007812 L 39.28125 -67.410156 L 73.21875 -67.410156 C 75.429688 -67.410156 76.9375 -68.570312 76.9375 -71.359375 L 76.9375 -91.234375 C 76.9375 -94.140625 75.195312 -95.300781 73.21875 -95.300781 L 39.28125 -95.300781 L 39.28125 -132.609375 L 81.820312 -132.609375 C 83.914062 -132.609375 85.074219 -134.003906 85.074219 -136.792969 L 85.074219 -156.550781 C 85.074219 -159.457031 83.914062 -160.851562 81.820312 -160.851562 L 12.320312 -160.851562 C 9.878906 -160.851562 8.367188 -159.109375 8.367188 -156.320312 L 8.367188 -4.417969 C 8.367188 -1.628906 9.644531 0 12.320312 0 L 82.402344 0 C 84.261719 0 85.773438 -1.277344 85.773438 -4.066406 L 85.773438 -24.058594 C 85.773438 -26.730469 84.261719 -28.007812 82.402344 -28.007812 Z M 39.28125 -28.007812 "/></g></g></g><g fill="#ffffff" fill-opacity="1"><g transform="translate(233.514849, 265.60315)"><g><path d="M 39.28125 -132.609375 L 50.789062 -132.609375 C 58.691406 -132.609375 64.15625 -128.078125 64.15625 -118.3125 L 64.15625 -42.1875 C 64.15625 -34.285156 59.15625 -28.242188 51.371094 -28.007812 L 39.28125 -28.007812 Z M 8.367188 -4.417969 C 8.367188 -1.628906 9.644531 0 12.320312 0 L 52.882812 0 C 76.589844 -0.234375 95.070312 -14.527344 95.070312 -41.257812 L 95.070312 -119.59375 C 95.070312 -146.207031 76.707031 -160.617188 52.648438 -160.851562 L 12.320312 -160.851562 C 9.878906 -160.851562 8.367188 -159.109375 8.367188 -156.320312 Z M 8.367188 -4.417969 "/></g></g></g><g clip-path="url(#d58a88fd32)"><path fill="#ffffff" d="M 0 167.34375 L 374.378906 167.34375 L 374.378906 207.953125 L 0 207.953125 Z M 0 167.34375 " fill-opacity="1" fill-rule="nonzero"/></g><g fill="#ffffff" fill-opacity="1"><g transform="translate(126.288961, 197.85989)"><g><path d="M 4.992188 -15.789062 C 4.992188 -16.742188 5.582031 -17.601562 6.609375 -17.601562 C 7.621094 -17.601562 8.210938 -16.742188 8.210938 -15.789062 L 8.210938 -8.515625 L 4.992188 -8.515625 Z M 12.25 -16.015625 C 12.25 -18.917969 9.617188 -21.261719 6.59375 -21.261719 C 3.570312 -21.261719 0.953125 -18.917969 0.953125 -16.015625 L 0.953125 -0.589844 C 0.953125 -0.273438 1.117188 0 1.347656 0 L 4.535156 0 C 4.898438 0 4.992188 -0.257812 4.992188 -0.589844 L 4.992188 -4.992188 L 8.210938 -4.992188 L 8.210938 -0.605469 C 8.210938 -0.289062 8.394531 0 8.695312 0 L 11.765625 0 C 12.113281 0 12.25 -0.300781 12.25 -0.605469 Z M 12.25 -16.015625 "/></g></g></g><g fill="#ffffff" fill-opacity="1"><g transform="translate(155.445285, 197.85989)"><g/></g></g><g fill="#ffffff" fill-opacity="1"><g transform="translate(178.417759, 197.85989)"><g><path d="M 19.507812 -20.324219 C 19.507812 -20.628906 19.355469 -20.929688 19.023438 -20.929688 L 15.953125 -20.929688 C 15.652344 -20.929688 15.484375 -20.644531 15.484375 -20.324219 L 15.484375 -5.140625 C 15.484375 -4.1875 14.925781 -3.3125 13.867188 -3.3125 C 12.808594 -3.3125 12.25 -4.1875 12.25 -5.140625 L 12.25 -20.339844 C 12.25 -20.65625 12.160156 -20.929688 11.796875 -20.929688 L 8.621094 -20.929688 C 8.394531 -20.929688 8.210938 -20.65625 8.210938 -20.339844 L 8.210938 -5.140625 C 8.210938 -4.1875 7.636719 -3.3125 6.578125 -3.3125 C 5.582031 -3.3125 4.992188 -4.1875 4.992188 -5.140625 L 4.992188 -20.339844 C 4.992188 -20.65625 4.882812 -20.929688 4.535156 -20.929688 L 1.347656 -20.929688 C 1.117188 -20.929688 0.953125 -20.65625 0.953125 -20.339844 L 0.953125 -4.914062 C 0.953125 -2.011719 2.980469 0.332031 6.59375 0.332031 C 8.316406 0.332031 9.589844 -0.4375 10.359375 -1.648438 C 11.085938 -0.4375 12.324219 0.332031 14.0625 0.332031 C 17.511719 0.332031 19.507812 -2.011719 19.507812 -4.914062 Z M 19.507812 -20.324219 "/></g></g></g><g fill="#ffffff" fill-opacity="1"><g transform="translate(214.831403, 197.85989)"><g/></g></g><g fill="#ffffff" fill-opacity="1"><g transform="translate(237.803875, 197.85989)"><g><path d="M 10.675781 -20.386719 C 10.675781 -20.75 10.511719 -20.929688 10.269531 -20.929688 L 1.601562 -20.929688 C 1.285156 -20.929688 1.089844 -20.703125 1.089844 -20.339844 L 1.089844 -0.574219 C 1.089844 -0.210938 1.253906 0 1.601562 0 L 4.628906 0 C 4.976562 0 5.113281 -0.210938 5.113281 -0.574219 L 5.113281 -8.46875 L 9.089844 -8.46875 C 9.359375 -8.46875 9.542969 -8.648438 9.542969 -9 L 9.542969 -11.570312 C 9.542969 -11.960938 9.332031 -12.097656 9.089844 -12.097656 L 5.113281 -12.097656 L 5.113281 -17.253906 L 10.269531 -17.253906 C 10.511719 -17.253906 10.675781 -17.4375 10.675781 -17.816406 Z M 10.675781 -20.386719 "/></g></g></g><path stroke-linecap="butt" transform="matrix(0.75, 0, 0, 0.75, 37.500002, 166.592802)" fill="none" stroke-linejoin="miter" d="M -0.00000271667 1.001264 L 400.000024 1.001264 " stroke="#ffffff" stroke-width="2" stroke-opacity="1" stroke-miterlimit="4"/><path stroke-linecap="butt" transform="matrix(0.75, 0, 0, 0.75, 37.500002, 206.907234)" fill="none" stroke-linejoin="miter" d="M -0.00000271667 0.998689 L 400.000024 0.998689 " stroke="#ffffff" stroke-width="2" stroke-opacity="1" stroke-miterlimit="4"/></svg>