<svg xmlns="http://www.w3.org/2000/svg" xmlns:xlink="http://www.w3.org/1999/xlink" width="500" zoomAndPan="magnify" viewBox="0 0 375 374.999991" height="500" preserveAspectRatio="xMidYMid meet" version="1.0"><defs><clipPath id="5a94495b6f"><path d="M 34 197 L 192 197 L 192 348 L 34 348 Z M 34 197 " clip-rule="nonzero"/></clipPath><clipPath id="3f59fa13ce"><path d="M 21.90625 82.980469 L 337.078125 62.75 L 354.476562 333.800781 L 39.300781 354.03125 Z M 21.90625 82.980469 " clip-rule="nonzero"/></clipPath><clipPath id="aaad07a62d"><path d="M 337.078125 62.75 L 21.90625 82.980469 L 39.300781 354.03125 L 354.476562 333.800781 Z M 337.078125 62.75 " clip-rule="nonzero"/></clipPath><clipPath id="e471d0e738"><path d="M 34 96 L 342 96 L 342 320 L 34 320 Z M 34 96 " clip-rule="nonzero"/></clipPath><clipPath id="093e8701e1"><path d="M 21.90625 82.980469 L 337.078125 62.75 L 354.476562 333.800781 L 39.300781 354.03125 Z M 21.90625 82.980469 " clip-rule="nonzero"/></clipPath><clipPath id="22886d3ef7"><path d="M 337.078125 62.75 L 21.90625 82.980469 L 39.300781 354.03125 L 354.476562 333.800781 Z M 337.078125 62.75 " clip-rule="nonzero"/></clipPath><clipPath id="2440e98eaa"><path d="M 58 109 L 329 109 L 329 260 L 58 260 Z M 58 109 " clip-rule="nonzero"/></clipPath><clipPath id="a4dde4631a"><path d="M 21.90625 82.980469 L 337.078125 62.75 L 354.476562 333.800781 L 39.300781 354.03125 Z M 21.90625 82.980469 " clip-rule="nonzero"/></clipPath><clipPath id="749fe8f481"><path d="M 337.078125 62.75 L 21.90625 82.980469 L 39.300781 354.03125 L 354.476562 333.800781 Z M 337.078125 62.75 " clip-rule="nonzero"/></clipPath><clipPath id="ca14a9616a"><path d="M 250.207031 18.21875 L 304.042969 18.21875 L 304.042969 72.050781 L 250.207031 72.050781 Z M 250.207031 18.21875 " clip-rule="nonzero"/></clipPath><clipPath id="a991e50899"><path d="M 277.125 18.21875 C 262.257812 18.21875 250.207031 30.269531 250.207031 45.132812 C 250.207031 60 262.257812 72.050781 277.125 72.050781 C 291.992188 72.050781 304.042969 60 304.042969 45.132812 C 304.042969 30.269531 291.992188 18.21875 277.125 18.21875 " clip-rule="nonzero"/></clipPath><clipPath id="48b26a3d7c"><path d="M 199 129 L 270 129 L 270 194 L 199 194 Z M 199 129 " clip-rule="nonzero"/></clipPath><clipPath id="d480a8886b"><path d="M 272.984375 192.039062 L 200.40625 194.988281 L 197.839844 131.878906 L 270.417969 128.925781 Z M 272.984375 192.039062 " clip-rule="nonzero"/></clipPath><clipPath id="1e65e1233a"><path d="M 272.984375 192.039062 L 200.40625 194.988281 L 197.839844 131.878906 L 270.417969 128.925781 Z M 272.984375 192.039062 " clip-rule="nonzero"/></clipPath><clipPath id="7351298aed"><path d="M 272.984375 192.039062 L 200.40625 194.988281 L 197.839844 131.878906 L 270.417969 128.925781 Z M 272.984375 192.039062 " clip-rule="nonzero"/></clipPath><clipPath id="0ccb9fdb80"><path d="M 54.171875 18.21875 L 108.003906 18.21875 L 108.003906 72.050781 L 54.171875 72.050781 Z M 54.171875 18.21875 " clip-rule="nonzero"/></clipPath><clipPath id="36d38165b1"><path d="M 81.085938 18.21875 C 66.222656 18.21875 54.171875 30.269531 54.171875 45.132812 C 54.171875 60 66.222656 72.050781 81.085938 72.050781 C 95.953125 72.050781 108.003906 60 108.003906 45.132812 C 108.003906 30.269531 95.953125 18.21875 81.085938 18.21875 " clip-rule="nonzero"/></clipPath><clipPath id="1ff7478aa2"><path d="M 51.402344 21.378906 L 101.933594 21.378906 L 101.933594 75.070312 L 51.402344 75.070312 Z M 51.402344 21.378906 " clip-rule="nonzero"/></clipPath><clipPath id="3045add4cf"><path d="M 246.792969 21.378906 L 297.324219 21.378906 L 297.324219 75.070312 L 246.792969 75.070312 Z M 246.792969 21.378906 " clip-rule="nonzero"/></clipPath></defs><rect x="-37.5" width="450" fill="#ffffff" y="-37.499999" height="449.999989" fill-opacity="1"/><rect x="-37.5" width="450" fill="#000000" y="-37.499999" height="449.999989" fill-opacity="1"/><g clip-path="url(#5a94495b6f)"><g clip-path="url(#3f59fa13ce)"><g clip-path="url(#aaad07a62d)"><path fill="#d9d9d9" d="M 60.539062 305.835938 C 84.859375 333.070312 105.644531 344.648438 141.347656 347.242188 C 127.164062 340.390625 120.804688 325.523438 119.0625 317.648438 C 124.371094 318.066406 129.671875 318.394531 135.019531 318.738281 C 153.886719 319.824219 172.832031 320.339844 191.796875 319.949219 C 118.074219 312.472656 56.292969 263.882812 34.363281 197.4375 C 33.535156 235.710938 34.421875 276.714844 60.539062 305.835938 " fill-opacity="1" fill-rule="nonzero"/></g></g></g><g clip-path="url(#e471d0e738)"><g clip-path="url(#093e8701e1)"><g clip-path="url(#22886d3ef7)"><path fill="#ffffff" d="M 34.363281 197.4375 C 56.292969 263.882812 118.074219 312.472656 191.796875 319.949219 C 205.527344 319.714844 219.210938 318.949219 232.882812 317.617188 C 243.304688 316.566406 255.453125 315.34375 267.574219 312.980469 C 287.421875 309.171875 307.289062 302.363281 319.878906 288.625 L 319.925781 288.621094 C 321.011719 287.410156 322.066406 286.140625 323.082031 284.84375 C 349.167969 250.097656 341.742188 186.304688 332.851562 146.992188 C 324.507812 110.042969 291.523438 96.636719 256.269531 98.707031 C 206.980469 97.164062 33.945312 82.675781 34.914062 162.078125 C 35.03125 170.734375 34.789062 179.871094 34.550781 189.242188 C 34.5 191.960938 34.414062 194.683594 34.363281 197.4375 " fill-opacity="1" fill-rule="nonzero"/></g></g></g><g clip-path="url(#2440e98eaa)"><g clip-path="url(#a4dde4631a)"><g clip-path="url(#749fe8f481)"><path fill="#ffffff" d="M 323.289062 259.65625 C 332.824219 227.125 327.289062 184.652344 320.808594 156.082031 C 313.097656 121.886719 282.554688 109.464844 249.921875 111.390625 C 230.722656 110.777344 191.285156 108.058594 152.082031 110.574219 C 114.664062 112.976562 77.457031 120.152344 58.273438 138.480469 C 79.390625 129.960938 106.480469 125.882812 133.6875 124.136719 C 176.027344 121.417969 218.628906 124.363281 239.351562 125.011719 C 274.582031 122.945312 307.566406 136.339844 315.910156 173.277344 C 321.300781 197.078125 326.085938 229.808594 323.289062 259.65625 " fill-opacity="1" fill-rule="nonzero"/></g></g></g><g clip-path="url(#ca14a9616a)"><g clip-path="url(#a991e50899)"><path fill="#ffffff" d="M 250.207031 18.21875 L 304.042969 18.21875 L 304.042969 72.050781 L 250.207031 72.050781 Z M 250.207031 18.21875 " fill-opacity="1" fill-rule="nonzero"/></g></g><g clip-path="url(#48b26a3d7c)"><g clip-path="url(#d480a8886b)"><g clip-path="url(#1e65e1233a)"><g clip-path="url(#7351298aed)"><path fill="#000000" d="M 207.261719 131.535156 L 260.707031 129.363281 C 261.078125 129.347656 261.453125 129.355469 261.824219 129.390625 C 262.199219 129.421875 262.566406 129.480469 262.933594 129.5625 C 263.296875 129.644531 263.65625 129.75 264.007812 129.875 C 264.359375 130.003906 264.699219 130.15625 265.03125 130.328125 C 265.363281 130.5 265.679688 130.695312 265.988281 130.90625 C 266.292969 131.121094 266.585938 131.355469 266.859375 131.605469 C 267.132812 131.859375 267.390625 132.128906 267.632812 132.414062 C 267.871094 132.699219 268.089844 133 268.292969 133.3125 C 268.492188 133.628906 268.671875 133.953125 268.828125 134.289062 C 268.984375 134.628906 269.121094 134.972656 269.230469 135.328125 C 269.34375 135.683594 269.429688 136.046875 269.496094 136.410156 C 269.558594 136.777344 269.597656 137.148438 269.613281 137.519531 C 269.628906 137.890625 269.621094 138.261719 269.585938 138.632812 C 269.554688 139.003906 269.496094 139.371094 269.414062 139.730469 C 269.332031 140.09375 269.226562 140.453125 269.097656 140.800781 C 268.96875 141.148438 268.816406 141.488281 268.644531 141.820312 L 243.8125 188.921875 C 243.636719 189.25 243.441406 189.566406 243.226562 189.871094 C 243.011719 190.175781 242.777344 190.464844 242.519531 190.738281 C 242.265625 191.011719 241.996094 191.269531 241.707031 191.507812 C 241.421875 191.746094 241.117188 191.964844 240.800781 192.164062 C 240.484375 192.363281 240.15625 192.539062 239.816406 192.695312 C 239.476562 192.851562 239.128906 192.988281 238.769531 193.097656 C 238.414062 193.207031 238.050781 193.296875 237.679688 193.359375 C 237.3125 193.421875 236.941406 193.460938 236.566406 193.476562 C 236.191406 193.492188 235.816406 193.484375 235.445312 193.449219 C 235.070312 193.417969 234.703125 193.359375 234.335938 193.277344 C 233.972656 193.195312 233.613281 193.089844 233.261719 192.964844 C 232.910156 192.835938 232.570312 192.683594 232.238281 192.511719 C 231.90625 192.339844 231.585938 192.144531 231.28125 191.929688 C 230.972656 191.71875 230.683594 191.484375 230.40625 191.230469 C 230.132812 190.980469 229.875 190.710938 229.636719 190.425781 C 229.394531 190.140625 229.175781 189.839844 228.972656 189.523438 L 200.804688 145.238281 C 199.675781 143.816406 199.085938 142.203125 199.039062 140.390625 C 199.015625 139.839844 199.046875 139.289062 199.132812 138.738281 C 199.21875 138.191406 199.355469 137.65625 199.546875 137.136719 C 199.738281 136.617188 199.976562 136.117188 200.265625 135.644531 C 200.554688 135.167969 200.886719 134.726562 201.261719 134.316406 C 201.636719 133.90625 202.050781 133.535156 202.5 133.207031 C 202.945312 132.875 203.421875 132.59375 203.925781 132.355469 C 204.429688 132.117188 204.953125 131.929688 205.492188 131.792969 C 206.035156 131.660156 206.582031 131.574219 207.140625 131.546875 Z M 207.261719 131.535156 " fill-opacity="1" fill-rule="nonzero"/></g></g></g></g><path stroke-linecap="round" transform="matrix(-0.0363316, -1.596614, 1.578704, -0.035924, 232.282693, 245.447737)" fill="none" stroke-linejoin="miter" d="M 3.999745 4.000592 L 34.569838 3.998931 " stroke="#000000" stroke-width="8" stroke-opacity="1" stroke-miterlimit="4"/><g clip-path="url(#0ccb9fdb80)"><g clip-path="url(#36d38165b1)"><path fill="#ffffff" d="M 54.171875 18.21875 L 108.003906 18.21875 L 108.003906 72.050781 L 54.171875 72.050781 Z M 54.171875 18.21875 " fill-opacity="1" fill-rule="nonzero"/></g></g><g clip-path="url(#1ff7478aa2)"><path fill="#d9d9d9" d="M 63.578125 36.871094 C 63.578125 31.136719 65.277344 25.804688 68.195312 21.371094 C 58.332031 25.628906 51.417969 35.550781 51.417969 47.113281 C 51.417969 62.558594 63.757812 75.078125 78.976562 75.078125 C 88.546875 75.078125 96.976562 70.128906 101.917969 62.613281 C 98.605469 64.042969 94.960938 64.835938 91.136719 64.835938 C 75.914062 64.835938 63.578125 52.316406 63.578125 36.871094 Z M 63.578125 36.871094 " fill-opacity="1" fill-rule="nonzero"/></g><g clip-path="url(#3045add4cf)"><path fill="#d9d9d9" d="M 258.964844 36.871094 C 258.964844 31.136719 260.667969 25.804688 263.582031 21.371094 C 253.722656 25.628906 246.808594 35.550781 246.808594 47.113281 C 246.808594 62.558594 259.144531 75.078125 274.367188 75.078125 C 283.9375 75.078125 292.367188 70.128906 297.308594 62.613281 C 293.996094 64.042969 290.351562 64.835938 286.523438 64.835938 C 271.304688 64.835938 258.964844 52.316406 258.964844 36.871094 Z M 258.964844 36.871094 " fill-opacity="1" fill-rule="nonzero"/></g></svg>