<svg xmlns="http://www.w3.org/2000/svg" xmlns:xlink="http://www.w3.org/1999/xlink" width="500" zoomAndPan="magnify" viewBox="0 0 375 374.999991" height="500" preserveAspectRatio="xMidYMid meet" version="1.0"><defs><g/><clipPath id="7c31cc29ee"><path d="M 0 167.34375 L 375 167.34375 L 375 207.65625 L 0 207.65625 Z M 0 167.34375 " clip-rule="nonzero"/></clipPath></defs><rect x="-37.5" width="450" fill="#ffffff" y="-37.499999" height="449.999989" fill-opacity="1"/><rect x="-37.5" width="450" fill="#ffffff" y="-37.499999" height="449.999989" fill-opacity="1"/><rect x="-37.5" width="450" fill="#ffffff" y="-37.499999" height="449.999989" fill-opacity="1"/><g fill="#000000" fill-opacity="1"><g transform="translate(40.608987, 265.603124)"><g><path d="M 77.519531 -132.609375 C 79.496094 -132.609375 80.890625 -134.003906 80.890625 -136.792969 L 80.890625 -156.667969 C 80.890625 -159.457031 79.496094 -160.851562 77.519531 -160.851562 L 3.253906 -160.851562 C 1.277344 -160.851562 -0.117188 -159.339844 -0.117188 -156.550781 L -0.117188 -136.792969 C -0.117188 -134.003906 1.277344 -132.609375 3.253906 -132.609375 L 24.871094 -132.609375 L 24.871094 -4.066406 C 24.871094 -1.394531 26.265625 0 28.242188 0 L 52.53125 0 C 54.390625 0 55.902344 -1.394531 55.902344 -4.066406 L 55.902344 -132.609375 Z M 77.519531 -132.609375 "/></g></g></g><g fill="#000000" fill-opacity="1"><g transform="translate(133.168482, 265.603124)"><g><path d="M 39.28125 -28.007812 L 39.28125 -67.410156 L 73.21875 -67.410156 C 75.429688 -67.410156 76.9375 -68.570312 76.9375 -71.359375 L 76.9375 -91.234375 C 76.9375 -94.140625 75.195312 -95.300781 73.21875 -95.300781 L 39.28125 -95.300781 L 39.28125 -132.609375 L 81.820312 -132.609375 C 83.914062 -132.609375 85.074219 -134.003906 85.074219 -136.792969 L 85.074219 -156.550781 C 85.074219 -159.457031 83.914062 -160.851562 81.820312 -160.851562 L 12.320312 -160.851562 C 9.878906 -160.851562 8.367188 -159.109375 8.367188 -156.320312 L 8.367188 -4.417969 C 8.367188 -1.628906 9.644531 0 12.320312 0 L 82.402344 0 C 84.261719 0 85.773438 -1.277344 85.773438 -4.066406 L 85.773438 -24.058594 C 85.773438 -26.730469 84.261719 -28.007812 82.402344 -28.007812 Z M 39.28125 -28.007812 "/></g></g></g><g fill="#000000" fill-opacity="1"><g transform="translate(233.514849, 265.603124)"><g><path d="M 39.28125 -132.609375 L 50.789062 -132.609375 C 58.691406 -132.609375 64.15625 -128.078125 64.15625 -118.3125 L 64.15625 -42.1875 C 64.15625 -34.285156 59.15625 -28.242188 51.371094 -28.007812 L 39.28125 -28.007812 Z M 8.367188 -4.417969 C 8.367188 -1.628906 9.644531 0 12.320312 0 L 52.882812 0 C 76.589844 -0.234375 95.070312 -14.527344 95.070312 -41.257812 L 95.070312 -119.59375 C 95.070312 -146.207031 76.707031 -160.617188 52.648438 -160.851562 L 12.320312 -160.851562 C 9.878906 -160.851562 8.367188 -159.109375 8.367188 -156.320312 Z M 8.367188 -4.417969 "/></g></g></g><g clip-path="url(#7c31cc29ee)"><path fill="#ffffff" d="M 0 167.34375 L 374.378906 167.34375 L 374.378906 207.953125 L 0 207.953125 Z M 0 167.34375 " fill-opacity="1" fill-rule="nonzero"/></g><g fill="#000000" fill-opacity="1"><g transform="translate(121.07633, 197.789785)"><g><path d="M 5.417969 -17.136719 C 5.417969 -18.171875 6.058594 -19.105469 7.171875 -19.105469 C 8.273438 -19.105469 8.914062 -18.171875 8.914062 -17.136719 L 8.914062 -9.242188 L 5.417969 -9.242188 Z M 13.296875 -17.382812 C 13.296875 -20.535156 10.441406 -23.078125 7.15625 -23.078125 C 3.875 -23.078125 1.035156 -20.535156 1.035156 -17.382812 L 1.035156 -0.640625 C 1.035156 -0.296875 1.214844 0 1.460938 0 L 4.925781 0 C 5.320312 0 5.417969 -0.277344 5.417969 -0.640625 L 5.417969 -5.417969 L 8.914062 -5.417969 L 8.914062 -0.65625 C 8.914062 -0.3125 9.109375 0 9.4375 0 L 12.769531 0 C 13.148438 0 13.296875 -0.328125 13.296875 -0.65625 Z M 13.296875 -17.382812 "/></g></g></g><g fill="#000000" fill-opacity="1"><g transform="translate(152.72094, 197.789785)"><g/></g></g><g fill="#000000" fill-opacity="1"><g transform="translate(177.652571, 197.789785)"><g><path d="M 21.175781 -22.0625 C 21.175781 -22.390625 21.011719 -22.71875 20.648438 -22.71875 L 17.316406 -22.71875 C 16.988281 -22.71875 16.808594 -22.40625 16.808594 -22.0625 L 16.808594 -5.582031 C 16.808594 -4.546875 16.203125 -3.59375 15.050781 -3.59375 C 13.902344 -3.59375 13.296875 -4.546875 13.296875 -5.582031 L 13.296875 -22.078125 C 13.296875 -22.421875 13.199219 -22.71875 12.804688 -22.71875 L 9.355469 -22.71875 C 9.109375 -22.71875 8.914062 -22.421875 8.914062 -22.078125 L 8.914062 -5.582031 C 8.914062 -4.546875 8.289062 -3.59375 7.140625 -3.59375 C 6.058594 -3.59375 5.417969 -4.546875 5.417969 -5.582031 L 5.417969 -22.078125 C 5.417969 -22.421875 5.300781 -22.71875 4.925781 -22.71875 L 1.460938 -22.71875 C 1.214844 -22.71875 1.035156 -22.421875 1.035156 -22.078125 L 1.035156 -5.335938 C 1.035156 -2.183594 3.234375 0.359375 7.15625 0.359375 C 9.027344 0.359375 10.40625 -0.476562 11.246094 -1.789062 C 12.03125 -0.476562 13.378906 0.359375 15.265625 0.359375 C 19.007812 0.359375 21.175781 -2.183594 21.175781 -5.335938 Z M 21.175781 -22.0625 "/></g></g></g><g fill="#000000" fill-opacity="1"><g transform="translate(217.175486, 197.789785)"><g/></g></g><g fill="#000000" fill-opacity="1"><g transform="translate(242.107118, 197.789785)"><g><path d="M 11.589844 -22.128906 C 11.589844 -22.523438 11.410156 -22.71875 11.144531 -22.71875 L 1.738281 -22.71875 C 1.394531 -22.71875 1.183594 -22.472656 1.183594 -22.078125 L 1.183594 -0.625 C 1.183594 -0.230469 1.363281 0 1.738281 0 L 5.023438 0 C 5.402344 0 5.546875 -0.230469 5.546875 -0.625 L 5.546875 -9.191406 L 9.867188 -9.191406 C 10.160156 -9.191406 10.359375 -9.390625 10.359375 -9.765625 L 10.359375 -12.558594 C 10.359375 -12.984375 10.128906 -13.132812 9.867188 -13.132812 L 5.546875 -13.132812 L 5.546875 -18.730469 L 11.144531 -18.730469 C 11.410156 -18.730469 11.589844 -18.925781 11.589844 -19.335938 Z M 11.589844 -22.128906 "/></g></g></g><path stroke-linecap="butt" transform="matrix(0.75, -0.000000000000000053, 0.000000000000000053, 0.75, 37.500002, 166.592773)" fill="none" stroke-linejoin="miter" d="M -0.00000271667 1.001303 L 400.000024 1.001303 " stroke="#000000" stroke-width="2" stroke-opacity="1" stroke-miterlimit="4"/><path stroke-linecap="butt" transform="matrix(0.75, 0, 0, 0.75, 37.500002, 206.907217)" fill="none" stroke-linejoin="miter" d="M -0.00000271667 0.998711 L 400.000024 0.998711 " stroke="#000000" stroke-width="2" stroke-opacity="1" stroke-miterlimit="4"/></svg>