<svg xmlns="http://www.w3.org/2000/svg" xmlns:xlink="http://www.w3.org/1999/xlink" width="500" zoomAndPan="magnify" viewBox="0 0 375 374.999991" height="500" preserveAspectRatio="xMidYMid meet" version="1.0"><defs><g/><clipPath id="5d596b6e94"><path d="M 0 167.34375 L 375 167.34375 L 375 207.65625 L 0 207.65625 Z M 0 167.34375 " clip-rule="nonzero"/></clipPath></defs><rect x="-37.5" width="450" fill="#ffffff" y="-37.499999" height="449.999989" fill-opacity="1"/><rect x="-37.5" width="450" fill="#000000" y="-37.499999" height="449.999989" fill-opacity="1"/><g fill="#ffffff" fill-opacity="1"><g transform="translate(40.608987, 265.60315)"><g><path d="M 77.519531 -132.609375 C 79.496094 -132.609375 80.890625 -134.003906 80.890625 -136.792969 L 80.890625 -156.667969 C 80.890625 -159.457031 79.496094 -160.851562 77.519531 -160.851562 L 3.253906 -160.851562 C 1.277344 -160.851562 -0.117188 -159.339844 -0.117188 -156.550781 L -0.117188 -136.792969 C -0.117188 -134.003906 1.277344 -132.609375 3.253906 -132.609375 L 24.871094 -132.609375 L 24.871094 -4.066406 C 24.871094 -1.394531 26.265625 0 28.242188 0 L 52.53125 0 C 54.390625 0 55.902344 -1.394531 55.902344 -4.066406 L 55.902344 -132.609375 Z M 77.519531 -132.609375 "/></g></g></g><g fill="#ffffff" fill-opacity="1"><g transform="translate(133.168482, 265.60315)"><g><path d="M 39.28125 -28.007812 L 39.28125 -67.410156 L 73.21875 -67.410156 C 75.429688 -67.410156 76.9375 -68.570312 76.9375 -71.359375 L 76.9375 -91.234375 C 76.9375 -94.140625 75.195312 -95.300781 73.21875 -95.300781 L 39.28125 -95.300781 L 39.28125 -132.609375 L 81.820312 -132.609375 C 83.914062 -132.609375 85.074219 -134.003906 85.074219 -136.792969 L 85.074219 -156.550781 C 85.074219 -159.457031 83.914062 -160.851562 81.820312 -160.851562 L 12.320312 -160.851562 C 9.878906 -160.851562 8.367188 -159.109375 8.367188 -156.320312 L 8.367188 -4.417969 C 8.367188 -1.628906 9.644531 0 12.320312 0 L 82.402344 0 C 84.261719 0 85.773438 -1.277344 85.773438 -4.066406 L 85.773438 -24.058594 C 85.773438 -26.730469 84.261719 -28.007812 82.402344 -28.007812 Z M 39.28125 -28.007812 "/></g></g></g><g fill="#ffffff" fill-opacity="1"><g transform="translate(233.514849, 265.60315)"><g><path d="M 39.28125 -132.609375 L 50.789062 -132.609375 C 58.691406 -132.609375 64.15625 -128.078125 64.15625 -118.3125 L 64.15625 -42.1875 C 64.15625 -34.285156 59.15625 -28.242188 51.371094 -28.007812 L 39.28125 -28.007812 Z M 8.367188 -4.417969 C 8.367188 -1.628906 9.644531 0 12.320312 0 L 52.882812 0 C 76.589844 -0.234375 95.070312 -14.527344 95.070312 -41.257812 L 95.070312 -119.59375 C 95.070312 -146.207031 76.707031 -160.617188 52.648438 -160.851562 L 12.320312 -160.851562 C 9.878906 -160.851562 8.367188 -159.109375 8.367188 -156.320312 Z M 8.367188 -4.417969 "/></g></g></g><g clip-path="url(#5d596b6e94)"><path fill="#000000" d="M 0 167.34375 L 374.378906 167.34375 L 374.378906 207.953125 L 0 207.953125 Z M 0 167.34375 " fill-opacity="1" fill-rule="nonzero"/></g><g fill="#ffffff" fill-opacity="1"><g transform="translate(119.739699, 198.221933)"><g><path d="M 5.527344 -17.484375 C 5.527344 -18.539062 6.179688 -19.492188 7.316406 -19.492188 C 8.441406 -19.492188 9.09375 -18.539062 9.09375 -17.484375 L 9.09375 -9.429688 L 5.527344 -9.429688 Z M 13.5625 -17.734375 C 13.5625 -20.949219 10.652344 -23.542969 7.300781 -23.542969 C 3.953125 -23.542969 1.054688 -20.949219 1.054688 -17.734375 L 1.054688 -0.652344 C 1.054688 -0.300781 1.238281 0 1.492188 0 L 5.023438 0 C 5.425781 0 5.527344 -0.285156 5.527344 -0.652344 L 5.527344 -5.527344 L 9.09375 -5.527344 L 9.09375 -0.667969 C 9.09375 -0.316406 9.292969 0 9.628906 0 L 13.027344 0 C 13.414062 0 13.5625 -0.335938 13.5625 -0.667969 Z M 13.5625 -17.734375 "/></g></g></g><g fill="#ffffff" fill-opacity="1"><g transform="translate(152.025211, 198.221933)"><g/></g></g><g fill="#ffffff" fill-opacity="1"><g transform="translate(177.463196, 198.221933)"><g><path d="M 21.601562 -22.507812 C 21.601562 -22.839844 21.433594 -23.175781 21.066406 -23.175781 L 17.667969 -23.175781 C 17.332031 -23.175781 17.148438 -22.859375 17.148438 -22.507812 L 17.148438 -5.695312 C 17.148438 -4.636719 16.527344 -3.667969 15.355469 -3.667969 C 14.183594 -3.667969 13.5625 -4.636719 13.5625 -5.695312 L 13.5625 -22.523438 C 13.5625 -22.875 13.464844 -23.175781 13.0625 -23.175781 L 9.546875 -23.175781 C 9.292969 -23.175781 9.09375 -22.875 9.09375 -22.523438 L 9.09375 -5.695312 C 9.09375 -4.636719 8.457031 -3.667969 7.285156 -3.667969 C 6.179688 -3.667969 5.527344 -4.636719 5.527344 -5.695312 L 5.527344 -22.523438 C 5.527344 -22.875 5.410156 -23.175781 5.023438 -23.175781 L 1.492188 -23.175781 C 1.238281 -23.175781 1.054688 -22.875 1.054688 -22.523438 L 1.054688 -5.441406 C 1.054688 -2.226562 3.300781 0.367188 7.300781 0.367188 C 9.210938 0.367188 10.617188 -0.484375 11.472656 -1.824219 C 12.273438 -0.484375 13.648438 0.367188 15.574219 0.367188 C 19.390625 0.367188 21.601562 -2.226562 21.601562 -5.441406 Z M 21.601562 -22.507812 "/></g></g></g><g fill="#ffffff" fill-opacity="1"><g transform="translate(217.784916, 198.221933)"><g/></g></g><g fill="#ffffff" fill-opacity="1"><g transform="translate(243.222898, 198.221933)"><g><path d="M 11.824219 -22.574219 C 11.824219 -22.976562 11.636719 -23.175781 11.371094 -23.175781 L 1.773438 -23.175781 C 1.421875 -23.175781 1.207031 -22.925781 1.207031 -22.523438 L 1.207031 -0.636719 C 1.207031 -0.234375 1.390625 0 1.773438 0 L 5.125 0 C 5.507812 0 5.660156 -0.234375 5.660156 -0.636719 L 5.660156 -9.378906 L 10.0625 -9.378906 C 10.367188 -9.378906 10.566406 -9.578125 10.566406 -9.964844 L 10.566406 -12.8125 C 10.566406 -13.246094 10.332031 -13.398438 10.0625 -13.398438 L 5.660156 -13.398438 L 5.660156 -19.105469 L 11.371094 -19.105469 C 11.636719 -19.105469 11.824219 -19.308594 11.824219 -19.726562 Z M 11.824219 -22.574219 "/></g></g></g><path stroke-linecap="butt" transform="matrix(0.75, 0, 0, 0.75, 37.500002, 166.592802)" fill="none" stroke-linejoin="miter" d="M -0.00000271667 1.001264 L 400.000024 1.001264 " stroke="#ffffff" stroke-width="2" stroke-opacity="1" stroke-miterlimit="4"/><path stroke-linecap="butt" transform="matrix(0.75, 0, 0, 0.75, 37.500002, 206.907234)" fill="none" stroke-linejoin="miter" d="M -0.00000271667 0.998689 L 400.000024 0.998689 " stroke="#ffffff" stroke-width="2" stroke-opacity="1" stroke-miterlimit="4"/></svg>