<svg xmlns="http://www.w3.org/2000/svg" xmlns:xlink="http://www.w3.org/1999/xlink" width="500" zoomAndPan="magnify" viewBox="0 0 375 374.999991" height="500" preserveAspectRatio="xMidYMid meet" version="1.0"><defs><g/><clipPath id="1392d157b1"><path d="M 103 131 L 187 131 L 187 212 L 103 212 Z M 103 131 " clip-rule="nonzero"/></clipPath><clipPath id="12a18c95e7"><path d="M 96.628906 71.617188 L 262.683594 60.960938 L 271.859375 203.933594 L 105.808594 214.589844 Z M 96.628906 71.617188 " clip-rule="nonzero"/></clipPath><clipPath id="63add655ed"><path d="M 262.671875 60.960938 L 96.621094 71.621094 L 105.796875 214.589844 L 271.851562 203.933594 Z M 262.671875 60.960938 " clip-rule="nonzero"/></clipPath><clipPath id="5e71ab556d"><path d="M 103 78 L 265 78 L 265 197 L 103 197 Z M 103 78 " clip-rule="nonzero"/></clipPath><clipPath id="3deb2b9845"><path d="M 96.628906 71.617188 L 262.683594 60.960938 L 271.859375 203.933594 L 105.808594 214.589844 Z M 96.628906 71.617188 " clip-rule="nonzero"/></clipPath><clipPath id="bde1a90e21"><path d="M 262.671875 60.960938 L 96.621094 71.621094 L 105.796875 214.589844 L 271.851562 203.933594 Z M 262.671875 60.960938 " clip-rule="nonzero"/></clipPath><clipPath id="4d298b0957"><path d="M 115 85 L 259 85 L 259 165 L 115 165 Z M 115 85 " clip-rule="nonzero"/></clipPath><clipPath id="9184cde9de"><path d="M 96.628906 71.617188 L 262.683594 60.960938 L 271.859375 203.933594 L 105.808594 214.589844 Z M 96.628906 71.617188 " clip-rule="nonzero"/></clipPath><clipPath id="ffab8460a9"><path d="M 262.671875 60.960938 L 96.621094 71.621094 L 105.796875 214.589844 L 271.851562 203.933594 Z M 262.671875 60.960938 " clip-rule="nonzero"/></clipPath><clipPath id="ca8e27a283"><path d="M 216.90625 37.5 L 245.269531 37.5 L 245.269531 65.859375 L 216.90625 65.859375 Z M 216.90625 37.5 " clip-rule="nonzero"/></clipPath><clipPath id="118b853dba"><path d="M 231.085938 37.5 C 223.253906 37.5 216.90625 43.847656 216.90625 51.679688 C 216.90625 59.511719 223.253906 65.859375 231.085938 65.859375 C 238.917969 65.859375 245.269531 59.511719 245.269531 51.679688 C 245.269531 43.847656 238.917969 37.5 231.085938 37.5 " clip-rule="nonzero"/></clipPath><clipPath id="10d1d0d53f"><path d="M 190 95 L 228 95 L 228 130 L 190 130 Z M 190 95 " clip-rule="nonzero"/></clipPath><clipPath id="f9fe41a911"><path d="M 228.914062 129.078125 L 191.039062 130.621094 L 189.683594 97.238281 L 227.554688 95.699219 Z M 228.914062 129.078125 " clip-rule="nonzero"/></clipPath><clipPath id="beff505d7f"><path d="M 228.914062 129.078125 L 191.039062 130.621094 L 189.683594 97.238281 L 227.554688 95.699219 Z M 228.914062 129.078125 " clip-rule="nonzero"/></clipPath><clipPath id="24c37f77b5"><path d="M 228.914062 129.078125 L 191.039062 130.621094 L 189.683594 97.238281 L 227.554688 95.699219 Z M 228.914062 129.078125 " clip-rule="nonzero"/></clipPath><clipPath id="85bbf564a7"><path d="M 113.628906 37.5 L 141.988281 37.5 L 141.988281 65.859375 L 113.628906 65.859375 Z M 113.628906 37.5 " clip-rule="nonzero"/></clipPath><clipPath id="f09a61867c"><path d="M 127.808594 37.5 C 119.976562 37.5 113.628906 43.847656 113.628906 51.679688 C 113.628906 59.511719 119.976562 65.859375 127.808594 65.859375 C 135.640625 65.859375 141.988281 59.511719 141.988281 51.679688 C 141.988281 43.847656 135.640625 37.5 127.808594 37.5 " clip-rule="nonzero"/></clipPath><clipPath id="4e2923dbc3"><path d="M 112.171875 39.164062 L 139.152344 39.164062 L 139.152344 67.433594 L 112.171875 67.433594 Z M 112.171875 39.164062 " clip-rule="nonzero"/></clipPath><clipPath id="865203642b"><path d="M 215.105469 39.164062 L 242.089844 39.164062 L 242.089844 67.433594 L 215.105469 67.433594 Z M 215.105469 39.164062 " clip-rule="nonzero"/></clipPath></defs><rect x="-37.5" width="450" fill="#ffffff" y="-37.499999" height="449.999989" fill-opacity="1"/><rect x="-37.5" width="450" fill="#ffffff" y="-37.499999" height="449.999989" fill-opacity="1"/><rect x="-37.5" width="450" fill="#2b2722" y="-37.499999" height="449.999989" fill-opacity="1"/><g clip-path="url(#1392d157b1)"><g clip-path="url(#12a18c95e7)"><g clip-path="url(#63add655ed)"><path fill="#d9d9d9" d="M 116.984375 189.171875 C 129.796875 203.539062 140.75 209.644531 159.5625 211.015625 C 152.085938 207.402344 148.734375 199.558594 147.820312 195.40625 C 150.613281 195.625 153.40625 195.796875 156.226562 195.980469 C 166.167969 196.554688 176.148438 196.828125 186.140625 196.621094 C 147.296875 192.675781 114.746094 167.042969 103.1875 131.992188 C 102.753906 152.179688 103.222656 173.808594 116.984375 189.171875 " fill-opacity="1" fill-rule="nonzero"/></g></g></g><g clip-path="url(#5e71ab556d)"><g clip-path="url(#3deb2b9845)"><g clip-path="url(#bde1a90e21)"><path fill="#ffffff" d="M 103.1875 131.992188 C 114.746094 167.042969 147.296875 192.675781 186.140625 196.621094 C 193.375 196.496094 200.582031 196.09375 207.785156 195.394531 C 213.277344 194.839844 219.679688 194.195312 226.0625 192.949219 C 236.519531 190.941406 246.988281 187.351562 253.621094 180.101562 L 253.644531 180.101562 C 254.21875 179.460938 254.773438 178.792969 255.308594 178.109375 C 269.050781 159.78125 265.132812 126.132812 260.449219 105.394531 C 256.050781 85.90625 238.671875 78.832031 220.097656 79.921875 C 194.132812 79.105469 102.964844 71.457031 103.476562 113.339844 C 103.539062 117.90625 103.414062 122.726562 103.289062 127.671875 C 103.261719 129.105469 103.214844 130.539062 103.1875 131.992188 " fill-opacity="1" fill-rule="nonzero"/></g></g></g><g clip-path="url(#4d298b0957)"><g clip-path="url(#9184cde9de)"><g clip-path="url(#ffab8460a9)"><path fill="#ffffff" d="M 255.414062 164.824219 C 260.4375 147.664062 257.519531 125.261719 254.105469 110.191406 C 250.039062 92.152344 233.949219 85.597656 216.753906 86.613281 C 206.640625 86.289062 185.863281 84.855469 165.207031 86.179688 C 145.492188 87.445312 125.890625 91.226562 115.785156 100.894531 C 126.910156 96.402344 141.183594 94.25 155.515625 93.332031 C 177.824219 91.898438 200.269531 93.453125 211.1875 93.796875 C 229.75 92.707031 247.125 99.773438 251.523438 119.261719 C 254.363281 131.8125 256.886719 149.078125 255.414062 164.824219 " fill-opacity="1" fill-rule="nonzero"/></g></g></g><g clip-path="url(#ca8e27a283)"><g clip-path="url(#118b853dba)"><path fill="#ffffff" d="M 216.90625 37.5 L 245.269531 37.5 L 245.269531 65.859375 L 216.90625 65.859375 Z M 216.90625 37.5 " fill-opacity="1" fill-rule="nonzero"/></g></g><g clip-path="url(#10d1d0d53f)"><g clip-path="url(#f9fe41a911)"><g clip-path="url(#beff505d7f)"><g clip-path="url(#24c37f77b5)"><path fill="#000000" d="M 194.601562 97.0625 L 222.488281 95.925781 C 222.683594 95.917969 222.878906 95.925781 223.070312 95.941406 C 223.265625 95.960938 223.460938 95.992188 223.648438 96.035156 C 223.839844 96.078125 224.027344 96.132812 224.210938 96.199219 C 224.394531 96.269531 224.570312 96.347656 224.746094 96.4375 C 224.917969 96.53125 225.085938 96.632812 225.242188 96.746094 C 225.402344 96.859375 225.554688 96.984375 225.699219 97.117188 C 225.84375 97.25 225.976562 97.390625 226.101562 97.542969 C 226.226562 97.695312 226.34375 97.851562 226.445312 98.019531 C 226.550781 98.183594 226.644531 98.359375 226.726562 98.535156 C 226.808594 98.714844 226.878906 98.898438 226.9375 99.085938 C 226.996094 99.273438 227.042969 99.464844 227.074219 99.660156 C 227.109375 99.851562 227.128906 100.046875 227.136719 100.242188 C 227.144531 100.441406 227.140625 100.636719 227.125 100.832031 C 227.105469 101.027344 227.078125 101.222656 227.035156 101.414062 C 226.992188 101.605469 226.9375 101.796875 226.871094 101.980469 C 226.800781 102.164062 226.722656 102.34375 226.632812 102.519531 L 213.6875 127.421875 C 213.597656 127.597656 213.496094 127.765625 213.382812 127.925781 C 213.269531 128.085938 213.148438 128.238281 213.015625 128.382812 C 212.882812 128.527344 212.742188 128.664062 212.59375 128.789062 C 212.441406 128.914062 212.285156 129.03125 212.117188 129.136719 C 211.953125 129.242188 211.78125 129.335938 211.605469 129.417969 C 211.429688 129.5 211.246094 129.570312 211.058594 129.628906 C 210.871094 129.6875 210.683594 129.734375 210.492188 129.769531 C 210.296875 129.800781 210.105469 129.824219 209.910156 129.832031 C 209.714844 129.839844 209.519531 129.832031 209.324219 129.816406 C 209.128906 129.796875 208.9375 129.765625 208.746094 129.722656 C 208.554688 129.679688 208.367188 129.625 208.183594 129.558594 C 208 129.488281 207.824219 129.410156 207.648438 129.316406 C 207.476562 129.226562 207.308594 129.125 207.148438 129.011719 C 206.992188 128.898438 206.839844 128.773438 206.695312 128.640625 C 206.550781 128.507812 206.417969 128.363281 206.292969 128.214844 C 206.164062 128.0625 206.050781 127.902344 205.945312 127.738281 L 191.234375 104.308594 C 190.644531 103.554688 190.335938 102.699219 190.308594 101.742188 C 190.296875 101.449219 190.3125 101.160156 190.359375 100.871094 C 190.402344 100.578125 190.476562 100.296875 190.574219 100.023438 C 190.675781 99.746094 190.800781 99.484375 190.949219 99.230469 C 191.101562 98.980469 191.273438 98.746094 191.46875 98.53125 C 191.664062 98.3125 191.878906 98.117188 192.113281 97.945312 C 192.347656 97.769531 192.597656 97.621094 192.859375 97.496094 C 193.121094 97.367188 193.394531 97.269531 193.675781 97.199219 C 193.957031 97.125 194.246094 97.082031 194.535156 97.066406 Z M 194.601562 97.0625 " fill-opacity="1" fill-rule="nonzero"/></g></g></g></g><path stroke-linecap="round" transform="matrix(-0.0146337, -0.643087, 0.642283, -0.0146154, 207.579704, 157.209453)" fill="none" stroke-linejoin="miter" d="M 4.998522 5.001213 L 44.942643 4.999021 " stroke="#000000" stroke-width="10" stroke-opacity="1" stroke-miterlimit="4"/><g clip-path="url(#85bbf564a7)"><g clip-path="url(#f09a61867c)"><path fill="#ffffff" d="M 113.628906 37.5 L 141.988281 37.5 L 141.988281 65.859375 L 113.628906 65.859375 Z M 113.628906 37.5 " fill-opacity="1" fill-rule="nonzero"/></g></g><g clip-path="url(#4e2923dbc3)"><path fill="#d9d9d9" d="M 118.671875 47.320312 C 118.671875 44.304688 119.578125 41.496094 121.136719 39.160156 C 115.871094 41.402344 112.175781 46.628906 112.175781 52.714844 C 112.175781 60.84375 118.765625 67.4375 126.894531 67.4375 C 132.003906 67.4375 136.507812 64.832031 139.148438 60.875 C 137.378906 61.628906 135.433594 62.046875 133.386719 62.046875 C 125.261719 62.046875 118.671875 55.453125 118.671875 47.320312 Z M 118.671875 47.320312 " fill-opacity="1" fill-rule="nonzero"/></g><g clip-path="url(#865203642b)"><path fill="#d9d9d9" d="M 221.605469 47.320312 C 221.605469 44.304688 222.515625 41.496094 224.074219 39.160156 C 218.804688 41.402344 215.113281 46.628906 215.113281 52.714844 C 215.113281 60.84375 221.703125 67.4375 229.832031 67.4375 C 234.941406 67.4375 239.445312 64.832031 242.082031 60.875 C 240.3125 61.628906 238.367188 62.046875 236.324219 62.046875 C 228.195312 62.046875 221.605469 55.453125 221.605469 47.320312 Z M 221.605469 47.320312 " fill-opacity="1" fill-rule="nonzero"/></g><g fill="#ffffff" fill-opacity="1"><g transform="translate(120.312088, 280.727892)"><g><path d="M 39.304688 -43.855469 C 39.304688 -46.941406 37.203125 -48.550781 33.347656 -48.550781 L 7.707031 -48.550781 C 3.851562 -48.550781 1.75 -46.871094 1.75 -43.855469 C 1.75 -40.84375 3.851562 -39.09375 7.777344 -39.09375 C 9.878906 -39.164062 11.910156 -39.164062 13.871094 -39.164062 C 13.871094 -34.257812 13.941406 -29.285156 13.941406 -24.308594 C 13.941406 -18.144531 13.871094 -12.050781 13.800781 -5.953125 C 13.800781 -2.101562 15.902344 0 19.757812 0 L 21.019531 0 C 24.871094 0 26.972656 -2.101562 26.902344 -5.953125 C 26.902344 -12.121094 26.902344 -18.144531 26.902344 -24.308594 L 26.902344 -39.164062 C 29.003906 -39.164062 31.035156 -39.164062 33.277344 -39.09375 C 37.203125 -39.09375 39.304688 -40.84375 39.304688 -43.855469 Z M 39.304688 -43.855469 "/></g></g></g><g fill="#ffffff" fill-opacity="1"><g transform="translate(161.360194, 280.727892)"><g><path d="M 18.355469 -9.316406 L 18.355469 -19.335938 C 21.296875 -19.265625 24.242188 -19.265625 27.042969 -19.195312 C 30.894531 -19.195312 32.996094 -20.878906 32.996094 -23.960938 C 32.996094 -26.972656 30.894531 -28.652344 27.042969 -28.652344 C 24.242188 -28.585938 21.296875 -28.585938 18.355469 -28.515625 L 18.355469 -39.234375 C 22.207031 -39.164062 26.132812 -39.164062 29.84375 -39.09375 C 33.699219 -39.09375 35.800781 -40.773438 35.800781 -43.855469 C 35.800781 -46.871094 33.699219 -48.550781 29.84375 -48.550781 L 11.210938 -48.550781 C 7.355469 -48.550781 5.253906 -46.449219 5.324219 -42.597656 C 5.324219 -36.5 5.394531 -30.40625 5.394531 -24.308594 C 5.394531 -18.214844 5.324219 -12.121094 5.324219 -5.953125 C 5.253906 -2.101562 7.355469 0 11.210938 0 L 30.546875 0 C 34.398438 0 36.5 -1.679688 36.5 -4.765625 C 36.5 -7.777344 34.398438 -9.457031 30.546875 -9.457031 C 26.621094 -9.386719 22.488281 -9.386719 18.355469 -9.316406 Z M 18.355469 -9.316406 "/></g></g></g><g fill="#ffffff" fill-opacity="1"><g transform="translate(200.937301, 280.727892)"><g><path d="M 21.226562 0.0703125 C 37.132812 0 43.71875 -7.917969 43.71875 -24.941406 C 43.71875 -42.035156 37.132812 -48.550781 21.226562 -48.550781 L 11.347656 -48.550781 C 7.496094 -48.550781 5.394531 -46.378906 5.394531 -42.316406 C 5.394531 -21.085938 5.324219 -12.191406 5.253906 -5.816406 C 5.253906 -2.03125 7.355469 0 11.210938 0 Z M 18.425781 -9.667969 C 18.355469 -12.050781 18.355469 -14.640625 18.355469 -17.164062 C 18.355469 -29.144531 18.355469 -34.046875 18.425781 -38.882812 L 20.949219 -38.882812 C 28.515625 -38.882812 30.757812 -35.03125 30.757812 -24.308594 C 30.757812 -14.921875 28.234375 -9.667969 20.949219 -9.667969 Z M 18.425781 -9.667969 "/></g></g></g><g fill="#d9d9d9" fill-opacity="1"><g transform="translate(132.00262, 327.297756)"><g><path d="M 28.765625 -2.875 C 28.859375 -2.59375 28.90625 -2.296875 28.90625 -1.984375 C 28.90625 -1.367188 28.695312 -0.859375 28.28125 -0.453125 C 27.863281 -0.0546875 27.375 0.140625 26.8125 0.140625 C 26.382812 0.140625 25.988281 0.0078125 25.625 -0.25 C 25.269531 -0.507812 24.988281 -0.875 24.78125 -1.34375 L 21.90625 -8.15625 L 7.59375 -8.15625 L 4.765625 -1.296875 C 4.609375 -0.835938 4.351562 -0.484375 4 -0.234375 C 3.644531 0.015625 3.253906 0.140625 2.828125 0.140625 C 2.179688 0.140625 1.6875 -0.0234375 1.34375 -0.359375 C 1 -0.703125 0.828125 -1.171875 0.828125 -1.765625 C 0.828125 -1.878906 0.859375 -2.125 0.921875 -2.5 L 12.734375 -31.125 C 12.953125 -31.613281 13.253906 -31.988281 13.640625 -32.25 C 14.023438 -32.519531 14.460938 -32.625 14.953125 -32.5625 C 15.421875 -32.5625 15.835938 -32.4375 16.203125 -32.1875 C 16.578125 -31.9375 16.84375 -31.582031 17 -31.125 Z M 9.359375 -12.359375 L 20.140625 -12.359375 L 14.734375 -25.328125 Z M 9.359375 -12.359375 "/></g></g></g><g fill="#d9d9d9" fill-opacity="1"><g transform="translate(166.826576, 327.297756)"><g><path d="M 40.75 -32.5625 C 41.34375 -32.5625 41.882812 -32.34375 42.375 -31.90625 C 42.863281 -31.476562 43.109375 -30.910156 43.109375 -30.203125 C 43.109375 -29.953125 43.066406 -29.6875 42.984375 -29.40625 L 33.390625 -1.390625 C 33.265625 -0.953125 33.007812 -0.617188 32.625 -0.390625 C 32.238281 -0.160156 31.832031 -0.03125 31.40625 0 C 30.96875 0 30.546875 -0.117188 30.140625 -0.359375 C 29.742188 -0.609375 29.453125 -0.96875 29.265625 -1.4375 L 22.046875 -18.34375 L 14.859375 -1.4375 C 14.679688 -0.96875 14.390625 -0.609375 13.984375 -0.359375 C 13.585938 -0.117188 13.15625 0 12.6875 0 C 12.257812 -0.03125 11.859375 -0.164062 11.484375 -0.40625 C 11.117188 -0.65625 10.875 -0.984375 10.75 -1.390625 L 1.15625 -29.40625 C 1.0625 -29.6875 1.015625 -29.953125 1.015625 -30.203125 C 1.015625 -30.878906 1.269531 -31.441406 1.78125 -31.890625 C 2.289062 -32.335938 2.835938 -32.5625 3.421875 -32.5625 C 3.921875 -32.5625 4.367188 -32.425781 4.765625 -32.15625 C 5.171875 -31.894531 5.4375 -31.550781 5.5625 -31.125 L 13.390625 -7.921875 L 20.09375 -24.40625 C 20.28125 -24.84375 20.554688 -25.179688 20.921875 -25.421875 C 21.296875 -25.671875 21.71875 -25.796875 22.1875 -25.796875 C 22.644531 -25.796875 23.054688 -25.671875 23.421875 -25.421875 C 23.796875 -25.179688 24.078125 -24.84375 24.265625 -24.40625 L 30.796875 -7.921875 L 38.578125 -31.125 C 38.703125 -31.582031 38.960938 -31.9375 39.359375 -32.1875 C 39.765625 -32.4375 40.226562 -32.5625 40.75 -32.5625 Z M 40.75 -32.5625 "/></g></g></g><g fill="#d9d9d9" fill-opacity="1"><g transform="translate(216.051933, 327.297756)"><g><path d="M 8.375 -28.15625 L 8.375 -18.578125 L 19.78125 -18.578125 C 20.425781 -18.578125 20.957031 -18.375 21.375 -17.96875 C 21.789062 -17.570312 22 -17.046875 22 -16.390625 C 22 -15.835938 21.789062 -15.359375 21.375 -14.953125 C 20.957031 -14.554688 20.425781 -14.359375 19.78125 -14.359375 L 8.375 -14.359375 L 8.375 -2.21875 C 8.375 -1.601562 8.148438 -1.078125 7.703125 -0.640625 C 7.265625 -0.210938 6.734375 0 6.109375 0 C 5.460938 0 4.921875 -0.210938 4.484375 -0.640625 C 4.054688 -1.078125 3.84375 -1.601562 3.84375 -2.21875 L 3.84375 -30.203125 C 3.84375 -30.816406 4.054688 -31.335938 4.484375 -31.765625 C 4.921875 -32.203125 5.445312 -32.421875 6.0625 -32.421875 L 21.859375 -32.421875 C 22.503906 -32.421875 23.035156 -32.21875 23.453125 -31.8125 C 23.867188 -31.414062 24.078125 -30.890625 24.078125 -30.234375 C 24.078125 -29.679688 23.859375 -29.195312 23.421875 -28.78125 C 22.992188 -28.363281 22.472656 -28.15625 21.859375 -28.15625 Z M 8.375 -28.15625 "/></g></g></g></svg>