<svg xmlns="http://www.w3.org/2000/svg" xmlns:xlink="http://www.w3.org/1999/xlink" width="500" zoomAndPan="magnify" viewBox="0 0 375 374.999991" height="500" preserveAspectRatio="xMidYMid meet" version="1.0"><defs><clipPath id="066360355c"><path d="M 32 197 L 190 197 L 190 348 L 32 348 Z M 32 197 " clip-rule="nonzero"/></clipPath><clipPath id="753fa6b15a"><path d="M 19.8125 82.980469 L 334.988281 62.75 L 352.382812 333.800781 L 37.210938 354.03125 Z M 19.8125 82.980469 " clip-rule="nonzero"/></clipPath><clipPath id="998acb7fc4"><path d="M 334.988281 62.75 L 19.8125 82.980469 L 37.210938 354.03125 L 352.382812 333.800781 Z M 334.988281 62.75 " clip-rule="nonzero"/></clipPath><clipPath id="a12b563b73"><path d="M 32 96 L 340 96 L 340 320 L 32 320 Z M 32 96 " clip-rule="nonzero"/></clipPath><clipPath id="c1ac1a7a20"><path d="M 19.8125 82.980469 L 334.988281 62.75 L 352.382812 333.800781 L 37.210938 354.03125 Z M 19.8125 82.980469 " clip-rule="nonzero"/></clipPath><clipPath id="94b9430a80"><path d="M 334.988281 62.75 L 19.8125 82.980469 L 37.210938 354.03125 L 352.382812 333.800781 Z M 334.988281 62.75 " clip-rule="nonzero"/></clipPath><clipPath id="a2471007d7"><path d="M 56 109 L 327 109 L 327 260 L 56 260 Z M 56 109 " clip-rule="nonzero"/></clipPath><clipPath id="09769f1640"><path d="M 19.8125 82.980469 L 334.988281 62.75 L 352.382812 333.800781 L 37.210938 354.03125 Z M 19.8125 82.980469 " clip-rule="nonzero"/></clipPath><clipPath id="22738b99ac"><path d="M 334.988281 62.75 L 19.8125 82.980469 L 37.210938 354.03125 L 352.382812 333.800781 Z M 334.988281 62.75 " clip-rule="nonzero"/></clipPath><clipPath id="ae74dc756a"><path d="M 248.117188 18.21875 L 301.949219 18.21875 L 301.949219 72.050781 L 248.117188 72.050781 Z M 248.117188 18.21875 " clip-rule="nonzero"/></clipPath><clipPath id="4f07663a1a"><path d="M 275.03125 18.21875 C 260.167969 18.21875 248.117188 30.269531 248.117188 45.132812 C 248.117188 60 260.167969 72.050781 275.03125 72.050781 C 289.898438 72.050781 301.949219 60 301.949219 45.132812 C 301.949219 30.269531 289.898438 18.21875 275.03125 18.21875 " clip-rule="nonzero"/></clipPath><clipPath id="a9c734e7cb"><path d="M 196 129 L 268 129 L 268 194 L 196 194 Z M 196 129 " clip-rule="nonzero"/></clipPath><clipPath id="1e25a824ef"><path d="M 270.894531 192.039062 L 198.316406 194.988281 L 195.75 131.878906 L 268.328125 128.925781 Z M 270.894531 192.039062 " clip-rule="nonzero"/></clipPath><clipPath id="87e4ad145a"><path d="M 270.894531 192.039062 L 198.316406 194.988281 L 195.75 131.878906 L 268.328125 128.925781 Z M 270.894531 192.039062 " clip-rule="nonzero"/></clipPath><clipPath id="76eada6b5e"><path d="M 52.078125 18.21875 L 105.914062 18.21875 L 105.914062 72.050781 L 52.078125 72.050781 Z M 52.078125 18.21875 " clip-rule="nonzero"/></clipPath><clipPath id="77ef9859cc"><path d="M 78.996094 18.21875 C 64.128906 18.21875 52.078125 30.269531 52.078125 45.132812 C 52.078125 60 64.128906 72.050781 78.996094 72.050781 C 93.859375 72.050781 105.914062 60 105.914062 45.132812 C 105.914062 30.269531 93.859375 18.21875 78.996094 18.21875 " clip-rule="nonzero"/></clipPath><clipPath id="c16e0bfbd1"><path d="M 49.3125 21.378906 L 99.84375 21.378906 L 99.84375 75.070312 L 49.3125 75.070312 Z M 49.3125 21.378906 " clip-rule="nonzero"/></clipPath><clipPath id="61bef82d59"><path d="M 244.699219 21.378906 L 295.230469 21.378906 L 295.230469 75.070312 L 244.699219 75.070312 Z M 244.699219 21.378906 " clip-rule="nonzero"/></clipPath></defs><g clip-path="url(#066360355c)"><g clip-path="url(#753fa6b15a)"><g clip-path="url(#998acb7fc4)"><path fill="#aeb5d1" d="M 58.445312 305.835938 C 82.765625 333.070312 103.554688 344.648438 139.253906 347.242188 C 125.070312 340.390625 118.710938 325.523438 116.972656 317.648438 C 122.277344 318.066406 127.578125 318.394531 132.925781 318.738281 C 151.796875 319.824219 170.738281 320.339844 189.707031 319.949219 C 115.980469 312.472656 54.203125 263.882812 32.273438 197.4375 C 31.441406 235.710938 32.328125 276.714844 58.445312 305.835938 " fill-opacity="1" fill-rule="nonzero"/></g></g></g><g clip-path="url(#a12b563b73)"><g clip-path="url(#c1ac1a7a20)"><g clip-path="url(#94b9430a80)"><path fill="#ffffff" d="M 32.273438 197.4375 C 54.203125 263.882812 115.980469 312.472656 189.707031 319.949219 C 203.433594 319.714844 217.121094 318.949219 230.789062 317.617188 C 241.214844 316.566406 253.363281 315.34375 265.484375 312.980469 C 285.328125 309.171875 305.195312 302.363281 317.785156 288.625 L 317.832031 288.621094 C 318.921875 287.410156 319.972656 286.140625 320.988281 284.84375 C 347.074219 250.097656 339.648438 186.304688 330.757812 146.992188 C 322.414062 110.042969 289.429688 96.636719 254.175781 98.707031 C 204.890625 97.164062 31.851562 82.675781 32.824219 162.078125 C 32.9375 170.734375 32.695312 179.871094 32.460938 189.242188 C 32.40625 191.960938 32.320312 194.683594 32.273438 197.4375 " fill-opacity="1" fill-rule="nonzero"/></g></g></g><g clip-path="url(#a2471007d7)"><g clip-path="url(#09769f1640)"><g clip-path="url(#22738b99ac)"><path fill="#ffffff" d="M 321.195312 259.65625 C 330.734375 227.125 325.199219 184.652344 318.71875 156.082031 C 311.003906 121.886719 280.464844 109.464844 247.828125 111.390625 C 228.628906 110.777344 189.191406 108.058594 149.988281 110.574219 C 112.570312 112.976562 75.367188 120.152344 56.179688 138.480469 C 77.300781 129.960938 104.390625 125.882812 131.597656 124.136719 C 173.9375 121.417969 216.539062 124.363281 237.257812 125.011719 C 272.492188 122.945312 305.472656 136.339844 313.816406 173.277344 C 319.207031 197.078125 323.996094 229.808594 321.195312 259.65625 " fill-opacity="1" fill-rule="nonzero"/></g></g></g><g clip-path="url(#ae74dc756a)"><g clip-path="url(#4f07663a1a)"><path fill="#ffffff" d="M 248.117188 18.21875 L 301.949219 18.21875 L 301.949219 72.050781 L 248.117188 72.050781 Z M 248.117188 18.21875 " fill-opacity="1" fill-rule="nonzero"/></g></g><g clip-path="url(#a9c734e7cb)"><g clip-path="url(#1e25a824ef)"><g clip-path="url(#87e4ad145a)"><path fill="#393657" d="M 205.171875 131.535156 L 258.613281 129.363281 C 258.988281 129.347656 259.363281 129.355469 259.734375 129.390625 C 260.105469 129.421875 260.476562 129.480469 260.839844 129.5625 C 261.207031 129.644531 261.5625 129.75 261.914062 129.875 C 262.265625 130.003906 262.609375 130.15625 262.941406 130.328125 C 263.269531 130.5 263.589844 130.695312 263.894531 130.90625 C 264.203125 131.121094 264.492188 131.355469 264.765625 131.605469 C 265.042969 131.859375 265.300781 132.128906 265.539062 132.414062 C 265.78125 132.699219 266 133 266.199219 133.3125 C 266.398438 133.628906 266.578125 133.953125 266.734375 134.289062 C 266.894531 134.628906 267.027344 134.972656 267.140625 135.328125 C 267.25 135.683594 267.339844 136.046875 267.402344 136.410156 C 267.464844 136.777344 267.507812 137.148438 267.523438 137.519531 C 267.535156 137.890625 267.527344 138.261719 267.496094 138.632812 C 267.460938 139.003906 267.402344 139.371094 267.320312 139.730469 C 267.238281 140.09375 267.132812 140.453125 267.003906 140.800781 C 266.875 141.148438 266.726562 141.488281 266.550781 141.820312 L 241.71875 188.921875 C 241.546875 189.25 241.351562 189.566406 241.132812 189.871094 C 240.917969 190.175781 240.683594 190.464844 240.429688 190.738281 C 240.175781 191.011719 239.90625 191.269531 239.617188 191.507812 C 239.328125 191.746094 239.027344 191.964844 238.710938 192.164062 C 238.394531 192.363281 238.066406 192.539062 237.726562 192.695312 C 237.386719 192.851562 237.035156 192.988281 236.679688 193.097656 C 236.320312 193.207031 235.957031 193.296875 235.589844 193.359375 C 235.21875 193.421875 234.847656 193.460938 234.472656 193.476562 C 234.101562 193.492188 233.726562 193.484375 233.351562 193.449219 C 232.980469 193.417969 232.609375 193.359375 232.246094 193.277344 C 231.878906 193.195312 231.523438 193.089844 231.171875 192.964844 C 230.820312 192.835938 230.476562 192.683594 230.144531 192.511719 C 229.8125 192.339844 229.496094 192.144531 229.1875 191.929688 C 228.882812 191.71875 228.589844 191.484375 228.316406 191.230469 C 228.039062 190.980469 227.78125 190.710938 227.542969 190.425781 C 227.304688 190.140625 227.082031 189.839844 226.882812 189.523438 L 198.710938 145.238281 C 197.582031 143.816406 196.992188 142.203125 196.945312 140.390625 C 196.921875 139.839844 196.953125 139.289062 197.039062 138.738281 C 197.125 138.191406 197.265625 137.65625 197.453125 137.136719 C 197.644531 136.617188 197.886719 136.117188 198.175781 135.644531 C 198.460938 135.167969 198.792969 134.726562 199.171875 134.316406 C 199.546875 133.90625 199.957031 133.535156 200.40625 133.207031 C 200.855469 132.875 201.332031 132.59375 201.835938 132.355469 C 202.339844 132.117188 202.859375 131.929688 203.402344 131.792969 C 203.941406 131.660156 204.492188 131.574219 205.046875 131.546875 Z M 205.171875 131.535156 " fill-opacity="1" fill-rule="nonzero"/></g></g></g><path stroke-linecap="round" transform="matrix(-0.0363316, -1.596614, 1.578704, -0.035924, 230.190736, 245.447737)" fill="none" stroke-linejoin="miter" d="M 3.99977 3.999457 L 34.569808 4.00027 " stroke="#393657" stroke-width="8" stroke-opacity="1" stroke-miterlimit="4"/><g clip-path="url(#76eada6b5e)"><g clip-path="url(#77ef9859cc)"><path fill="#ffffff" d="M 52.078125 18.21875 L 105.914062 18.21875 L 105.914062 72.050781 L 52.078125 72.050781 Z M 52.078125 18.21875 " fill-opacity="1" fill-rule="nonzero"/></g></g><g clip-path="url(#c16e0bfbd1)"><path fill="#aeb5d1" d="M 61.484375 36.871094 C 61.484375 31.136719 63.1875 25.804688 66.101562 21.371094 C 56.242188 25.628906 49.328125 35.550781 49.328125 47.113281 C 49.328125 62.558594 61.664062 75.078125 76.886719 75.078125 C 86.453125 75.078125 94.886719 70.128906 99.828125 62.613281 C 96.515625 64.042969 92.871094 64.835938 89.042969 64.835938 C 73.824219 64.835938 61.484375 52.316406 61.484375 36.871094 Z M 61.484375 36.871094 " fill-opacity="1" fill-rule="nonzero"/></g><g clip-path="url(#61bef82d59)"><path fill="#aeb5d1" d="M 256.875 36.871094 C 256.875 31.136719 258.574219 25.804688 261.492188 21.371094 C 251.628906 25.628906 244.714844 35.550781 244.714844 47.113281 C 244.714844 62.558594 257.054688 75.078125 272.273438 75.078125 C 281.84375 75.078125 290.273438 70.128906 295.214844 62.613281 C 291.902344 64.042969 288.257812 64.835938 284.433594 64.835938 C 269.210938 64.835938 256.875 52.316406 256.875 36.871094 Z M 256.875 36.871094 " fill-opacity="1" fill-rule="nonzero"/></g></svg>